<?xml version="1.0" encoding="us-ascii" standalone="no"?><svg xmlns="http://www.w3.org/2000/svg" xmlns:xlink="http://www.w3.org/1999/xlink" contentStyleType="text/css" height="2378px" preserveAspectRatio="none" style="width:1633px;height:2378px;background:#FFFFFF;" version="1.1" viewBox="0 0 1633 2378" width="1633px" zoomAndPan="magnify"><defs/><g><rect fill="#FFFFFF" height="449.5703" style="stroke:#181818;stroke-width:1.0;" width="10" x="218" y="145.3125"/><rect fill="#FFFFFF" height="758.0859" style="stroke:#181818;stroke-width:1.0;" width="10" x="218" y="669.5859"/><rect fill="#FFFFFF" height="289.1641" style="stroke:#181818;stroke-width:1.0;" width="10" x="218" y="1502.375"/><rect fill="#FFFFFF" height="487.2734" style="stroke:#181818;stroke-width:1.0;" width="10" x="218" y="1866.2422"/><rect fill="#FFFFFF" height="388.8672" style="stroke:#181818;stroke-width:1.0;" width="10" x="564" y="175.6641"/><rect fill="#FFFFFF" height="697.3828" style="stroke:#181818;stroke-width:1.0;" width="10" x="564" y="699.9375"/><rect fill="#FFFFFF" height="228.4609" style="stroke:#181818;stroke-width:1.0;" width="10" x="564" y="1532.7266"/><rect fill="#FFFFFF" height="426.5703" style="stroke:#181818;stroke-width:1.0;" width="10" x="564" y="1896.5938"/><rect fill="#FFFFFF" height="74.7031" style="stroke:#181818;stroke-width:1.0;" width="10" x="862" y="354.4219"/><rect fill="#FFFFFF" height="74.7031" style="stroke:#181818;stroke-width:1.0;" width="10" x="862" y="459.4766"/><rect fill="#FFFFFF" height="74.7031" style="stroke:#181818;stroke-width:1.0;" width="10" x="862" y="823.3438"/><rect fill="#FFFFFF" height="74.7031" style="stroke:#181818;stroke-width:1.0;" width="10" x="862" y="1187.2109"/><rect fill="#FFFFFF" height="74.7031" style="stroke:#181818;stroke-width:1.0;" width="10" x="862" y="1292.2656"/><rect fill="#FFFFFF" height="74.7031" style="stroke:#181818;stroke-width:1.0;" width="10" x="862" y="1563.0781"/><rect fill="#FFFFFF" height="74.7031" style="stroke:#181818;stroke-width:1.0;" width="10" x="862" y="1926.9453"/><rect fill="#FFFFFF" height="74.7031" style="stroke:#181818;stroke-width:1.0;" width="10" x="862" y="2125.0547"/><rect fill="#FFFFFF" height="74.7031" style="stroke:#181818;stroke-width:1.0;" width="10" x="988.5" y="249.3672"/><rect fill="#FFFFFF" height="44.3516" style="stroke:#181818;stroke-width:1.0;" width="10" x="1127" y="1112.5078"/><rect fill="#FFFFFF" height="30.3516" style="stroke:#181818;stroke-width:1.0;" width="10" x="1273.5" y="1051.8047"/><rect fill="#FFFFFF" height="14" style="stroke:#181818;stroke-width:1.0;" width="10" x="1590" y="279.7188"/><rect fill="#FFFFFF" height="14" style="stroke:#181818;stroke-width:1.0;" width="10" x="1590" y="384.7734"/><rect fill="#FFFFFF" height="14" style="stroke:#181818;stroke-width:1.0;" width="10" x="1590" y="489.8281"/><rect fill="#FFFFFF" height="14" style="stroke:#181818;stroke-width:1.0;" width="10" x="1590" y="853.6953"/><rect fill="#FFFFFF" height="14" style="stroke:#181818;stroke-width:1.0;" width="10" x="1590" y="1142.8594"/><rect fill="#FFFFFF" height="14" style="stroke:#181818;stroke-width:1.0;" width="10" x="1590" y="1217.5625"/><rect fill="#FFFFFF" height="14" style="stroke:#181818;stroke-width:1.0;" width="10" x="1590" y="1322.6172"/><rect fill="#FFFFFF" height="14" style="stroke:#181818;stroke-width:1.0;" width="10" x="1590" y="1593.4297"/><rect fill="#FFFFFF" height="14" style="stroke:#181818;stroke-width:1.0;" width="10" x="1590" y="1957.2969"/><rect fill="#FFFFFF" height="14" style="stroke:#181818;stroke-width:1.0;" width="10" x="1590" y="2155.4063"/><rect fill="none" height="79.0547" style="stroke:#000000;stroke-width:1.5;" width="618" x="10" y="714.9375"/><rect fill="none" height="79.0547" style="stroke:#000000;stroke-width:1.5;" width="618" x="10" y="913.0469"/><rect fill="none" height="79.0547" style="stroke:#000000;stroke-width:1.5;" width="618" x="10" y="1652.7813"/><rect fill="none" height="79.0547" style="stroke:#000000;stroke-width:1.5;" width="618" x="10" y="2016.6484"/><rect fill="none" height="79.0547" style="stroke:#000000;stroke-width:1.5;" width="618" x="10" y="2214.7578"/><line style="stroke:#181818;stroke-width:0.5;stroke-dasharray:5.0,5.0;" x1="56" x2="56" y1="68.6094" y2="2371.5156"/><line style="stroke:#181818;stroke-width:0.5;stroke-dasharray:5.0,5.0;" x1="222.5" x2="222.5" y1="68.6094" y2="2371.5156"/><line style="stroke:#181818;stroke-width:0.5;stroke-dasharray:5.0,5.0;" x1="569" x2="569" y1="68.6094" y2="2371.5156"/><line style="stroke:#181818;stroke-width:0.5;stroke-dasharray:5.0,5.0;" x1="866.5" x2="866.5" y1="68.6094" y2="2371.5156"/><line style="stroke:#181818;stroke-width:0.5;stroke-dasharray:5.0,5.0;" x1="993.5" x2="993.5" y1="68.6094" y2="2371.5156"/><line style="stroke:#181818;stroke-width:0.5;stroke-dasharray:5.0,5.0;" x1="1131.5" x2="1131.5" y1="68.6094" y2="2371.5156"/><line style="stroke:#181818;stroke-width:0.5;stroke-dasharray:5.0,5.0;" x1="1278.5" x2="1278.5" y1="68.6094" y2="2371.5156"/><line style="stroke:#181818;stroke-width:0.5;stroke-dasharray:5.0,5.0;" x1="1447" x2="1447" y1="68.6094" y2="2371.5156"/><line style="stroke:#181818;stroke-width:0.5;stroke-dasharray:5.0,5.0;" x1="1533" x2="1533" y1="68.6094" y2="2371.5156"/><line style="stroke:#181818;stroke-width:0.5;stroke-dasharray:5.0,5.0;" x1="1595" x2="1595" y1="68.6094" y2="2371.5156"/><rect fill="#E2E2F0" height="31.6094" rx="2.5" ry="2.5" style="stroke:#181818;stroke-width:0.5;" width="72" x="20" y="36"/><text fill="#000000" font-family="sans-serif" font-size="14" lengthAdjust="spacing" textLength="58" x="27" y="57.5332">Frontend</text><rect fill="#E2E2F0" height="31.6094" rx="2.5" ry="2.5" style="stroke:#181818;stroke-width:0.5;" width="113" x="166.5" y="36"/><text fill="#000000" font-family="sans-serif" font-size="14" lengthAdjust="spacing" textLength="99" x="173.5" y="57.5332">OrderController</text><rect fill="#E2E2F0" height="31.6094" rx="2.5" ry="2.5" style="stroke:#181818;stroke-width:0.5;" width="98" x="520" y="36"/><text fill="#000000" font-family="sans-serif" font-size="14" lengthAdjust="spacing" textLength="84" x="527" y="57.5332">OrderService</text><rect fill="#E2E2F0" height="31.6094" rx="2.5" ry="2.5" style="stroke:#181818;stroke-width:0.5;" width="119" x="807.5" y="36"/><text fill="#000000" font-family="sans-serif" font-size="14" lengthAdjust="spacing" textLength="105" x="814.5" y="57.5332">OrderRepository</text><rect fill="#E2E2F0" height="31.6094" rx="2.5" ry="2.5" style="stroke:#181818;stroke-width:0.5;" width="114" x="936.5" y="36"/><text fill="#000000" font-family="sans-serif" font-size="14" lengthAdjust="spacing" textLength="100" x="943.5" y="57.5332">PriceRepository</text><rect fill="#E2E2F0" height="31.6094" rx="2.5" ry="2.5" style="stroke:#181818;stroke-width:0.5;" width="143" x="1060.5" y="36"/><text fill="#000000" font-family="sans-serif" font-size="14" lengthAdjust="spacing" textLength="129" x="1067.5" y="57.5332">BeverageRepository</text><rect fill="#E2E2F0" height="31.6094" rx="2.5" ry="2.5" style="stroke:#181818;stroke-width:0.5;" width="130" x="1213.5" y="36"/><text fill="#000000" font-family="sans-serif" font-size="14" lengthAdjust="spacing" textLength="116" x="1220.5" y="57.5332">NotificationService</text><rect fill="#E2E2F0" height="31.6094" rx="2.5" ry="2.5" style="stroke:#181818;stroke-width:0.5;" width="101" x="1397" y="36"/><text fill="#000000" font-family="sans-serif" font-size="14" lengthAdjust="spacing" textLength="87" x="1404" y="57.5332">PricingEngine</text><rect fill="#E2E2F0" height="31.6094" rx="2.5" ry="2.5" style="stroke:#181818;stroke-width:0.5;" width="51" x="1508" y="36"/><text fill="#000000" font-family="sans-serif" font-size="14" lengthAdjust="spacing" textLength="37" x="1515" y="57.5332">Stripe</text><text fill="#000000" font-family="sans-serif" font-size="14" lengthAdjust="spacing" textLength="46" x="1569" y="65.5332">MySQL</text><path d="M1577,15 C1577,5 1595,5 1595,5 C1595,5 1613,5 1613,15 L1613,41 C1613,51 1595,51 1595,51 C1595,51 1577,51 1577,41 L1577,15 " fill="#E2E2F0" style="stroke:#181818;stroke-width:1.5;"/><path d="M1577,15 C1577,25 1595,25 1595,25 C1595,25 1613,25 1613,15 " fill="none" style="stroke:#181818;stroke-width:1.5;"/><rect fill="#FFFFFF" height="449.5703" style="stroke:#181818;stroke-width:1.0;" width="10" x="218" y="145.3125"/><rect fill="#FFFFFF" height="758.0859" style="stroke:#181818;stroke-width:1.0;" width="10" x="218" y="669.5859"/><rect fill="#FFFFFF" height="289.1641" style="stroke:#181818;stroke-width:1.0;" width="10" x="218" y="1502.375"/><rect fill="#FFFFFF" height="487.2734" style="stroke:#181818;stroke-width:1.0;" width="10" x="218" y="1866.2422"/><rect fill="#FFFFFF" height="388.8672" style="stroke:#181818;stroke-width:1.0;" width="10" x="564" y="175.6641"/><rect fill="#FFFFFF" height="697.3828" style="stroke:#181818;stroke-width:1.0;" width="10" x="564" y="699.9375"/><rect fill="#FFFFFF" height="228.4609" style="stroke:#181818;stroke-width:1.0;" width="10" x="564" y="1532.7266"/><rect fill="#FFFFFF" height="426.5703" style="stroke:#181818;stroke-width:1.0;" width="10" x="564" y="1896.5938"/><rect fill="#FFFFFF" height="74.7031" style="stroke:#181818;stroke-width:1.0;" width="10" x="862" y="354.4219"/><rect fill="#FFFFFF" height="74.7031" style="stroke:#181818;stroke-width:1.0;" width="10" x="862" y="459.4766"/><rect fill="#FFFFFF" height="74.7031" style="stroke:#181818;stroke-width:1.0;" width="10" x="862" y="823.3438"/><rect fill="#FFFFFF" height="74.7031" style="stroke:#181818;stroke-width:1.0;" width="10" x="862" y="1187.2109"/><rect fill="#FFFFFF" height="74.7031" style="stroke:#181818;stroke-width:1.0;" width="10" x="862" y="1292.2656"/><rect fill="#FFFFFF" height="74.7031" style="stroke:#181818;stroke-width:1.0;" width="10" x="862" y="1563.0781"/><rect fill="#FFFFFF" height="74.7031" style="stroke:#181818;stroke-width:1.0;" width="10" x="862" y="1926.9453"/><rect fill="#FFFFFF" height="74.7031" style="stroke:#181818;stroke-width:1.0;" width="10" x="862" y="2125.0547"/><rect fill="#FFFFFF" height="74.7031" style="stroke:#181818;stroke-width:1.0;" width="10" x="988.5" y="249.3672"/><rect fill="#FFFFFF" height="44.3516" style="stroke:#181818;stroke-width:1.0;" width="10" x="1127" y="1112.5078"/><rect fill="#FFFFFF" height="30.3516" style="stroke:#181818;stroke-width:1.0;" width="10" x="1273.5" y="1051.8047"/><rect fill="#FFFFFF" height="14" style="stroke:#181818;stroke-width:1.0;" width="10" x="1590" y="279.7188"/><rect fill="#FFFFFF" height="14" style="stroke:#181818;stroke-width:1.0;" width="10" x="1590" y="384.7734"/><rect fill="#FFFFFF" height="14" style="stroke:#181818;stroke-width:1.0;" width="10" x="1590" y="489.8281"/><rect fill="#FFFFFF" height="14" style="stroke:#181818;stroke-width:1.0;" width="10" x="1590" y="853.6953"/><rect fill="#FFFFFF" height="14" style="stroke:#181818;stroke-width:1.0;" width="10" x="1590" y="1142.8594"/><rect fill="#FFFFFF" height="14" style="stroke:#181818;stroke-width:1.0;" width="10" x="1590" y="1217.5625"/><rect fill="#FFFFFF" height="14" style="stroke:#181818;stroke-width:1.0;" width="10" x="1590" y="1322.6172"/><rect fill="#FFFFFF" height="14" style="stroke:#181818;stroke-width:1.0;" width="10" x="1590" y="1593.4297"/><rect fill="#FFFFFF" height="14" style="stroke:#181818;stroke-width:1.0;" width="10" x="1590" y="1957.2969"/><rect fill="#FFFFFF" height="14" style="stroke:#181818;stroke-width:1.0;" width="10" x="1590" y="2155.4063"/><rect fill="#EEEEEE" height="3" style="stroke:#EEEEEE;stroke-width:1.0;" width="1626" x="0" y="99.7852"/><line style="stroke:#000000;stroke-width:1.0;" x1="0" x2="1626" y1="99.7852" y2="99.7852"/><line style="stroke:#000000;stroke-width:1.0;" x1="0" x2="1626" y1="102.7852" y2="102.7852"/><rect fill="#EEEEEE" height="24.3516" style="stroke:#000000;stroke-width:2.0;" width="118" x="754" y="88.6094"/><text fill="#000000" font-family="sans-serif" font-size="13" font-weight="bold" lengthAdjust="spacing" textLength="100" x="760" y="106.1045">Create an order</text><polygon fill="#181818" points="206,141.3125,216,145.3125,206,149.3125,210,145.3125" style="stroke:#181818;stroke-width:1.0;"/><line style="stroke:#181818;stroke-width:1.0;" x1="56" x2="212" y1="145.3125" y2="145.3125"/><text fill="#000000" font-family="sans-serif" font-size="13" lengthAdjust="spacing" textLength="79" x="63" y="140.4561">POST /orders</text><polygon fill="#181818" points="552,171.6641,562,175.6641,552,179.6641,556,175.6641" style="stroke:#181818;stroke-width:1.0;"/><line style="stroke:#181818;stroke-width:1.0;" x1="228" x2="558" y1="175.6641" y2="175.6641"/><text fill="#000000" font-family="sans-serif" font-size="13" lengthAdjust="spacing" textLength="96" x="235" y="170.8076">CreateOrder(dto)</text><line style="stroke:#181818;stroke-width:1.0;" x1="574" x2="616" y1="206.0156" y2="206.0156"/><line style="stroke:#181818;stroke-width:1.0;" x1="616" x2="616" y1="206.0156" y2="219.0156"/><line style="stroke:#181818;stroke-width:1.0;" x1="575" x2="616" y1="219.0156" y2="219.0156"/><polygon fill="#181818" points="585,215.0156,575,219.0156,585,223.0156,581,219.0156" style="stroke:#181818;stroke-width:1.0;"/><text fill="#000000" font-family="sans-serif" font-size="13" lengthAdjust="spacing" textLength="76" x="581" y="201.1592">dto.ToOrder()</text><polygon fill="#181818" points="976.5,245.3672,986.5,249.3672,976.5,253.3672,980.5,249.3672" style="stroke:#181818;stroke-width:1.0;"/><line style="stroke:#181818;stroke-width:1.0;" x1="574" x2="982.5" y1="249.3672" y2="249.3672"/><text fill="#000000" font-family="sans-serif" font-size="13" lengthAdjust="spacing" textLength="252" x="581" y="244.5107">GetLatestPriceForBeverage(dto.BeverageId)</text><polygon fill="#181818" points="1578,275.7188,1588,279.7188,1578,283.7188,1582,279.7188" style="stroke:#181818;stroke-width:1.0;"/><line style="stroke:#181818;stroke-width:1.0;" x1="998.5" x2="1584" y1="279.7188" y2="279.7188"/><text fill="#000000" font-family="sans-serif" font-size="13" font-style="italic" lengthAdjust="spacing" textLength="217" x="1009.5" y="274.8623">Fetch the latest price of the beverage</text><polygon fill="#181818" points="1009.5,289.7188,999.5,293.7188,1009.5,297.7188,1005.5,293.7188" style="stroke:#181818;stroke-width:1.0;"/><line style="stroke:#181818;stroke-width:1.0;stroke-dasharray:2.0,2.0;" x1="1003.5" x2="1594" y1="293.7188" y2="293.7188"/><polygon fill="#181818" points="585,320.0703,575,324.0703,585,328.0703,581,324.0703" style="stroke:#181818;stroke-width:1.0;"/><line style="stroke:#181818;stroke-width:1.0;stroke-dasharray:2.0,2.0;" x1="579" x2="992.5" y1="324.0703" y2="324.0703"/><text fill="#000000" font-family="sans-serif" font-size="13" lengthAdjust="spacing" textLength="30" x="591" y="319.2139">Price</text><polygon fill="#181818" points="850,350.4219,860,354.4219,850,358.4219,854,354.4219" style="stroke:#181818;stroke-width:1.0;"/><line style="stroke:#181818;stroke-width:1.0;" x1="574" x2="856" y1="354.4219" y2="354.4219"/><text fill="#000000" font-family="sans-serif" font-size="13" lengthAdjust="spacing" textLength="75" x="581" y="349.5654">Create(order)</text><polygon fill="#181818" points="1578,380.7734,1588,384.7734,1578,388.7734,1582,384.7734" style="stroke:#181818;stroke-width:1.0;"/><line style="stroke:#181818;stroke-width:1.0;" x1="872" x2="1584" y1="384.7734" y2="384.7734"/><text fill="#000000" font-family="sans-serif" font-size="13" font-style="italic" lengthAdjust="spacing" textLength="194" x="883" y="379.917">Save a new order to the database</text><polygon fill="#181818" points="883,394.7734,873,398.7734,883,402.7734,879,398.7734" style="stroke:#181818;stroke-width:1.0;"/><line style="stroke:#181818;stroke-width:1.0;stroke-dasharray:2.0,2.0;" x1="877" x2="1594" y1="398.7734" y2="398.7734"/><polygon fill="#181818" points="585,425.125,575,429.125,585,433.125,581,429.125" style="stroke:#181818;stroke-width:1.0;"/><line style="stroke:#181818;stroke-width:1.0;stroke-dasharray:2.0,2.0;" x1="579" x2="866" y1="429.125" y2="429.125"/><text fill="#000000" font-family="sans-serif" font-size="13" lengthAdjust="spacing" textLength="32" x="591" y="424.2686">Order</text><polygon fill="#181818" points="850,455.4766,860,459.4766,850,463.4766,854,459.4766" style="stroke:#181818;stroke-width:1.0;"/><line style="stroke:#181818;stroke-width:1.0;" x1="574" x2="856" y1="459.4766" y2="459.4766"/><text fill="#000000" font-family="sans-serif" font-size="13" lengthAdjust="spacing" textLength="151" x="581" y="454.6201">GetById(id) // WHY THIS?</text><polygon fill="#181818" points="1578,485.8281,1588,489.8281,1578,493.8281,1582,489.8281" style="stroke:#181818;stroke-width:1.0;"/><line style="stroke:#181818;stroke-width:1.0;" x1="872" x2="1584" y1="489.8281" y2="489.8281"/><text fill="#000000" font-family="sans-serif" font-size="13" font-style="italic" lengthAdjust="spacing" textLength="238" x="883" y="484.9717">Fetch that same order from the database</text><polygon fill="#181818" points="883,499.8281,873,503.8281,883,507.8281,879,503.8281" style="stroke:#181818;stroke-width:1.0;"/><line style="stroke:#181818;stroke-width:1.0;stroke-dasharray:2.0,2.0;" x1="877" x2="1594" y1="503.8281" y2="503.8281"/><polygon fill="#181818" points="585,530.1797,575,534.1797,585,538.1797,581,534.1797" style="stroke:#181818;stroke-width:1.0;"/><line style="stroke:#181818;stroke-width:1.0;stroke-dasharray:2.0,2.0;" x1="579" x2="866" y1="534.1797" y2="534.1797"/><text fill="#000000" font-family="sans-serif" font-size="13" lengthAdjust="spacing" textLength="32" x="591" y="529.3232">Order</text><polygon fill="#181818" points="239,560.5313,229,564.5313,239,568.5313,235,564.5313" style="stroke:#181818;stroke-width:1.0;"/><line style="stroke:#181818;stroke-width:1.0;stroke-dasharray:2.0,2.0;" x1="233" x2="568" y1="564.5313" y2="564.5313"/><text fill="#000000" font-family="sans-serif" font-size="13" lengthAdjust="spacing" textLength="32" x="245" y="559.6748">Order</text><polygon fill="#181818" points="67,590.8828,57,594.8828,67,598.8828,63,594.8828" style="stroke:#181818;stroke-width:1.0;"/><line style="stroke:#181818;stroke-width:1.0;stroke-dasharray:2.0,2.0;" x1="61" x2="222" y1="594.8828" y2="594.8828"/><text fill="#000000" font-family="sans-serif" font-size="13" lengthAdjust="spacing" textLength="70" x="73" y="590.0264">201 Created</text><rect fill="#EEEEEE" height="3" style="stroke:#EEEEEE;stroke-width:1.0;" width="1626" x="0" y="624.0586"/><line style="stroke:#000000;stroke-width:1.0;" x1="0" x2="1626" y1="624.0586" y2="624.0586"/><line style="stroke:#000000;stroke-width:1.0;" x1="0" x2="1626" y1="627.0586" y2="627.0586"/><rect fill="#EEEEEE" height="24.3516" style="stroke:#000000;stroke-width:2.0;" width="125" x="750.5" y="612.8828"/><text fill="#000000" font-family="sans-serif" font-size="13" font-weight="bold" lengthAdjust="spacing" textLength="107" x="756.5" y="630.3779">Process an order</text><polygon fill="#181818" points="206,665.5859,216,669.5859,206,673.5859,210,669.5859" style="stroke:#181818;stroke-width:1.0;"/><line style="stroke:#181818;stroke-width:1.0;" x1="56" x2="212" y1="669.5859" y2="669.5859"/><text fill="#000000" font-family="sans-serif" font-size="13" lengthAdjust="spacing" textLength="143" x="63" y="664.7295">POST /orders/id/process</text><polygon fill="#181818" points="552,695.9375,562,699.9375,552,703.9375,556,699.9375" style="stroke:#181818;stroke-width:1.0;"/><line style="stroke:#181818;stroke-width:1.0;" x1="228" x2="558" y1="699.9375" y2="699.9375"/><text fill="#000000" font-family="sans-serif" font-size="13" lengthAdjust="spacing" textLength="152" x="235" y="695.0811">ProcessOrder(id, quantity)</text><path d="M10,714.9375 L71,714.9375 L71,723.2891 L61,733.2891 L10,733.2891 L10,714.9375 " fill="#EEEEEE" style="stroke:#000000;stroke-width:1.5;"/><rect fill="none" height="79.0547" style="stroke:#000000;stroke-width:1.5;" width="618" x="10" y="714.9375"/><text fill="#000000" font-family="sans-serif" font-size="13" font-weight="bold" lengthAdjust="spacing" textLength="16" x="25" y="729.4326">alt</text><text fill="#000000" font-family="sans-serif" font-size="11" font-weight="bold" lengthAdjust="spacing" textLength="70" x="86" y="728.3564">[quantity &lt; 1]</text><polygon fill="#181818" points="239,751.6406,229,755.6406,239,759.6406,235,755.6406" style="stroke:#181818;stroke-width:1.0;"/><line style="stroke:#181818;stroke-width:1.0;" x1="233" x2="563" y1="755.6406" y2="755.6406"/><text fill="#000000" font-family="sans-serif" font-size="13" lengthAdjust="spacing" textLength="158" x="245" y="750.7842">throw ValidationException()</text><polygon fill="#181818" points="67,781.9922,57,785.9922,67,789.9922,63,785.9922" style="stroke:#181818;stroke-width:1.0;"/><line style="stroke:#181818;stroke-width:1.0;stroke-dasharray:2.0,2.0;" x1="61" x2="217" y1="785.9922" y2="785.9922"/><text fill="#000000" font-family="sans-serif" font-size="13" lengthAdjust="spacing" textLength="100" x="73" y="781.1357">400 Bad Request</text><polygon fill="#181818" points="850,819.3438,860,823.3438,850,827.3438,854,823.3438" style="stroke:#181818;stroke-width:1.0;"/><line style="stroke:#181818;stroke-width:1.0;" x1="574" x2="856" y1="823.3438" y2="823.3438"/><text fill="#000000" font-family="sans-serif" font-size="13" lengthAdjust="spacing" textLength="65" x="581" y="818.4873">GetById(id)</text><polygon fill="#181818" points="1578,849.6953,1588,853.6953,1578,857.6953,1582,853.6953" style="stroke:#181818;stroke-width:1.0;"/><line style="stroke:#181818;stroke-width:1.0;" x1="872" x2="1584" y1="853.6953" y2="853.6953"/><text fill="#000000" font-family="sans-serif" font-size="13" font-style="italic" lengthAdjust="spacing" textLength="236" x="883" y="848.8389">Fetch a specific order from the database</text><polygon fill="#181818" points="883,863.6953,873,867.6953,883,871.6953,879,867.6953" style="stroke:#181818;stroke-width:1.0;"/><line style="stroke:#181818;stroke-width:1.0;stroke-dasharray:2.0,2.0;" x1="877" x2="1594" y1="867.6953" y2="867.6953"/><polygon fill="#181818" points="585,894.0469,575,898.0469,585,902.0469,581,898.0469" style="stroke:#181818;stroke-width:1.0;"/><line style="stroke:#181818;stroke-width:1.0;stroke-dasharray:2.0,2.0;" x1="579" x2="866" y1="898.0469" y2="898.0469"/><text fill="#000000" font-family="sans-serif" font-size="13" lengthAdjust="spacing" textLength="32" x="591" y="893.1904">Order</text><path d="M10,913.0469 L71,913.0469 L71,921.3984 L61,931.3984 L10,931.3984 L10,913.0469 " fill="#EEEEEE" style="stroke:#000000;stroke-width:1.5;"/><rect fill="none" height="79.0547" style="stroke:#000000;stroke-width:1.5;" width="618" x="10" y="913.0469"/><text fill="#000000" font-family="sans-serif" font-size="13" font-weight="bold" lengthAdjust="spacing" textLength="16" x="25" y="927.542">alt</text><text fill="#000000" font-family="sans-serif" font-size="11" font-weight="bold" lengthAdjust="spacing" textLength="77" x="86" y="926.4658">[order == null]</text><polygon fill="#181818" points="239,949.75,229,953.75,239,957.75,235,953.75" style="stroke:#181818;stroke-width:1.0;"/><line style="stroke:#181818;stroke-width:1.0;" x1="233" x2="563" y1="953.75" y2="953.75"/><text fill="#000000" font-family="sans-serif" font-size="13" lengthAdjust="spacing" textLength="157" x="245" y="948.8936">throw NotFoundException()</text><polygon fill="#181818" points="67,980.1016,57,984.1016,67,988.1016,63,984.1016" style="stroke:#181818;stroke-width:1.0;"/><line style="stroke:#181818;stroke-width:1.0;stroke-dasharray:2.0,2.0;" x1="61" x2="217" y1="984.1016" y2="984.1016"/><text fill="#000000" font-family="sans-serif" font-size="13" lengthAdjust="spacing" textLength="85" x="73" y="979.2451">404 Not Found</text><polygon fill="#181818" points="1521.5,1017.4531,1531.5,1021.4531,1521.5,1025.4531,1525.5,1021.4531" style="stroke:#181818;stroke-width:1.0;"/><line style="stroke:#181818;stroke-width:1.0;" x1="574" x2="1527.5" y1="1021.4531" y2="1021.4531"/><text fill="#000000" font-family="sans-serif" font-size="13" lengthAdjust="spacing" textLength="240" x="581" y="1016.5967">Create(new PaymentIntentCreateOptions)</text><polygon fill="#181818" points="1261.5,1047.8047,1271.5,1051.8047,1261.5,1055.8047,1265.5,1051.8047" style="stroke:#181818;stroke-width:1.0;"/><line style="stroke:#181818;stroke-width:1.0;" x1="574" x2="1267.5" y1="1051.8047" y2="1051.8047"/><text fill="#000000" font-family="sans-serif" font-size="13" lengthAdjust="spacing" textLength="343" x="581" y="1046.9482">SendBeverageOrderedNotificationAsync(beverage, quantity)</text><polygon fill="#181818" points="1435.5,1078.1563,1445.5,1082.1563,1435.5,1086.1563,1439.5,1082.1563" style="stroke:#181818;stroke-width:1.0;"/><line style="stroke:#181818;stroke-width:1.0;" x1="1278.5" x2="1441.5" y1="1082.1563" y2="1082.1563"/><text fill="#000000" font-family="sans-serif" font-size="13" lengthAdjust="spacing" textLength="140" x="1285.5" y="1077.2998">POST /beverageOrdered</text><polygon fill="#181818" points="1115,1108.5078,1125,1112.5078,1115,1116.5078,1119,1112.5078" style="stroke:#181818;stroke-width:1.0;"/><line style="stroke:#181818;stroke-width:1.0;" x1="574" x2="1121" y1="1112.5078" y2="1112.5078"/><text fill="#000000" font-family="sans-serif" font-size="13" lengthAdjust="spacing" textLength="218" x="581" y="1107.6514">IncreaseSoldUnits(beverage, quantity)</text><polygon fill="#181818" points="1578,1138.8594,1588,1142.8594,1578,1146.8594,1582,1142.8594" style="stroke:#181818;stroke-width:1.0;"/><line style="stroke:#181818;stroke-width:1.0;" x1="1137" x2="1584" y1="1142.8594" y2="1142.8594"/><text fill="#000000" font-family="sans-serif" font-size="13" font-style="italic" lengthAdjust="spacing" textLength="252" x="1148" y="1138.0029">Update a specific beverage in the database</text><polygon fill="#181818" points="1143,1152.8594,1133,1156.8594,1143,1160.8594,1139,1156.8594" style="stroke:#181818;stroke-width:1.0;"/><line style="stroke:#181818;stroke-width:1.0;stroke-dasharray:2.0,2.0;" x1="1137" x2="1594" y1="1156.8594" y2="1156.8594"/><polygon fill="#181818" points="850,1183.2109,860,1187.2109,850,1191.2109,854,1187.2109" style="stroke:#181818;stroke-width:1.0;"/><line style="stroke:#181818;stroke-width:1.0;" x1="574" x2="856" y1="1187.2109" y2="1187.2109"/><text fill="#000000" font-family="sans-serif" font-size="13" lengthAdjust="spacing" textLength="78" x="581" y="1182.3545">Update(order)</text><polygon fill="#181818" points="1578,1213.5625,1588,1217.5625,1578,1221.5625,1582,1217.5625" style="stroke:#181818;stroke-width:1.0;"/><line style="stroke:#181818;stroke-width:1.0;" x1="872" x2="1584" y1="1217.5625" y2="1217.5625"/><text fill="#000000" font-family="sans-serif" font-size="13" font-style="italic" lengthAdjust="spacing" textLength="228" x="883" y="1212.7061">Update a specific order in the database</text><polygon fill="#181818" points="883,1227.5625,873,1231.5625,883,1235.5625,879,1231.5625" style="stroke:#181818;stroke-width:1.0;"/><line style="stroke:#181818;stroke-width:1.0;stroke-dasharray:2.0,2.0;" x1="877" x2="1594" y1="1231.5625" y2="1231.5625"/><polygon fill="#181818" points="585,1257.9141,575,1261.9141,585,1265.9141,581,1261.9141" style="stroke:#181818;stroke-width:1.0;"/><line style="stroke:#181818;stroke-width:1.0;stroke-dasharray:2.0,2.0;" x1="579" x2="866" y1="1261.9141" y2="1261.9141"/><text fill="#000000" font-family="sans-serif" font-size="13" lengthAdjust="spacing" textLength="32" x="591" y="1257.0576">Order</text><polygon fill="#181818" points="850,1288.2656,860,1292.2656,850,1296.2656,854,1292.2656" style="stroke:#181818;stroke-width:1.0;"/><line style="stroke:#181818;stroke-width:1.0;" x1="574" x2="856" y1="1292.2656" y2="1292.2656"/><text fill="#000000" font-family="sans-serif" font-size="13" lengthAdjust="spacing" textLength="65" x="581" y="1287.4092">GetById(id)</text><polygon fill="#181818" points="1578,1318.6172,1588,1322.6172,1578,1326.6172,1582,1322.6172" style="stroke:#181818;stroke-width:1.0;"/><line style="stroke:#181818;stroke-width:1.0;" x1="872" x2="1584" y1="1322.6172" y2="1322.6172"/><text fill="#000000" font-family="sans-serif" font-size="13" font-style="italic" lengthAdjust="spacing" textLength="236" x="883" y="1317.7607">Fetch a specific order from the database</text><polygon fill="#181818" points="883,1332.6172,873,1336.6172,883,1340.6172,879,1336.6172" style="stroke:#181818;stroke-width:1.0;"/><line style="stroke:#181818;stroke-width:1.0;stroke-dasharray:2.0,2.0;" x1="877" x2="1594" y1="1336.6172" y2="1336.6172"/><polygon fill="#181818" points="585,1362.9688,575,1366.9688,585,1370.9688,581,1366.9688" style="stroke:#181818;stroke-width:1.0;"/><line style="stroke:#181818;stroke-width:1.0;stroke-dasharray:2.0,2.0;" x1="579" x2="866" y1="1366.9688" y2="1366.9688"/><text fill="#000000" font-family="sans-serif" font-size="13" lengthAdjust="spacing" textLength="32" x="591" y="1362.1123">Order</text><polygon fill="#181818" points="239,1393.3203,229,1397.3203,239,1401.3203,235,1397.3203" style="stroke:#181818;stroke-width:1.0;"/><line style="stroke:#181818;stroke-width:1.0;stroke-dasharray:2.0,2.0;" x1="233" x2="568" y1="1397.3203" y2="1397.3203"/><text fill="#000000" font-family="sans-serif" font-size="13" lengthAdjust="spacing" textLength="32" x="245" y="1392.4639">Order</text><polygon fill="#181818" points="67,1423.6719,57,1427.6719,67,1431.6719,63,1427.6719" style="stroke:#181818;stroke-width:1.0;"/><line style="stroke:#181818;stroke-width:1.0;stroke-dasharray:2.0,2.0;" x1="61" x2="222" y1="1427.6719" y2="1427.6719"/><text fill="#000000" font-family="sans-serif" font-size="13" lengthAdjust="spacing" textLength="44" x="73" y="1422.8154">200 OK</text><rect fill="#EEEEEE" height="3" style="stroke:#EEEEEE;stroke-width:1.0;" width="1626" x="0" y="1456.8477"/><line style="stroke:#000000;stroke-width:1.0;" x1="0" x2="1626" y1="1456.8477" y2="1456.8477"/><line style="stroke:#000000;stroke-width:1.0;" x1="0" x2="1626" y1="1459.8477" y2="1459.8477"/><rect fill="#EEEEEE" height="24.3516" style="stroke:#000000;stroke-width:2.0;" width="133" x="746.5" y="1445.6719"/><text fill="#000000" font-family="sans-serif" font-size="13" font-weight="bold" lengthAdjust="spacing" textLength="115" x="752.5" y="1463.167">Get an order by id</text><polygon fill="#181818" points="206,1498.375,216,1502.375,206,1506.375,210,1502.375" style="stroke:#181818;stroke-width:1.0;"/><line style="stroke:#181818;stroke-width:1.0;" x1="56" x2="212" y1="1502.375" y2="1502.375"/><text fill="#000000" font-family="sans-serif" font-size="13" lengthAdjust="spacing" textLength="84" x="63" y="1497.5186">GET /orders/id</text><polygon fill="#181818" points="552,1528.7266,562,1532.7266,552,1536.7266,556,1532.7266" style="stroke:#181818;stroke-width:1.0;"/><line style="stroke:#181818;stroke-width:1.0;" x1="228" x2="558" y1="1532.7266" y2="1532.7266"/><text fill="#000000" font-family="sans-serif" font-size="13" lengthAdjust="spacing" textLength="65" x="235" y="1527.8701">GetById(id)</text><polygon fill="#181818" points="850,1559.0781,860,1563.0781,850,1567.0781,854,1563.0781" style="stroke:#181818;stroke-width:1.0;"/><line style="stroke:#181818;stroke-width:1.0;" x1="574" x2="856" y1="1563.0781" y2="1563.0781"/><text fill="#000000" font-family="sans-serif" font-size="13" lengthAdjust="spacing" textLength="65" x="581" y="1558.2217">GetById(id)</text><polygon fill="#181818" points="1578,1589.4297,1588,1593.4297,1578,1597.4297,1582,1593.4297" style="stroke:#181818;stroke-width:1.0;"/><line style="stroke:#181818;stroke-width:1.0;" x1="872" x2="1584" y1="1593.4297" y2="1593.4297"/><text fill="#000000" font-family="sans-serif" font-size="13" font-style="italic" lengthAdjust="spacing" textLength="236" x="883" y="1588.5732">Fetch a specific order from the database</text><polygon fill="#181818" points="883,1603.4297,873,1607.4297,883,1611.4297,879,1607.4297" style="stroke:#181818;stroke-width:1.0;"/><line style="stroke:#181818;stroke-width:1.0;stroke-dasharray:2.0,2.0;" x1="877" x2="1594" y1="1607.4297" y2="1607.4297"/><polygon fill="#181818" points="585,1633.7813,575,1637.7813,585,1641.7813,581,1637.7813" style="stroke:#181818;stroke-width:1.0;"/><line style="stroke:#181818;stroke-width:1.0;stroke-dasharray:2.0,2.0;" x1="579" x2="866" y1="1637.7813" y2="1637.7813"/><text fill="#000000" font-family="sans-serif" font-size="13" lengthAdjust="spacing" textLength="32" x="591" y="1632.9248">Order</text><path d="M10,1652.7813 L71,1652.7813 L71,1661.1328 L61,1671.1328 L10,1671.1328 L10,1652.7813 " fill="#EEEEEE" style="stroke:#000000;stroke-width:1.5;"/><rect fill="none" height="79.0547" style="stroke:#000000;stroke-width:1.5;" width="618" x="10" y="1652.7813"/><text fill="#000000" font-family="sans-serif" font-size="13" font-weight="bold" lengthAdjust="spacing" textLength="16" x="25" y="1667.2764">alt</text><text fill="#000000" font-family="sans-serif" font-size="11" font-weight="bold" lengthAdjust="spacing" textLength="77" x="86" y="1666.2002">[order == null]</text><polygon fill="#181818" points="239,1689.4844,229,1693.4844,239,1697.4844,235,1693.4844" style="stroke:#181818;stroke-width:1.0;"/><line style="stroke:#181818;stroke-width:1.0;" x1="233" x2="563" y1="1693.4844" y2="1693.4844"/><text fill="#000000" font-family="sans-serif" font-size="13" lengthAdjust="spacing" textLength="157" x="245" y="1688.6279">throw NotFoundException()</text><polygon fill="#181818" points="67,1719.8359,57,1723.8359,67,1727.8359,63,1723.8359" style="stroke:#181818;stroke-width:1.0;"/><line style="stroke:#181818;stroke-width:1.0;stroke-dasharray:2.0,2.0;" x1="61" x2="217" y1="1723.8359" y2="1723.8359"/><text fill="#000000" font-family="sans-serif" font-size="13" lengthAdjust="spacing" textLength="85" x="73" y="1718.9795">404 Not Found</text><polygon fill="#181818" points="239,1757.1875,229,1761.1875,239,1765.1875,235,1761.1875" style="stroke:#181818;stroke-width:1.0;"/><line style="stroke:#181818;stroke-width:1.0;stroke-dasharray:2.0,2.0;" x1="233" x2="568" y1="1761.1875" y2="1761.1875"/><text fill="#000000" font-family="sans-serif" font-size="13" lengthAdjust="spacing" textLength="32" x="245" y="1756.3311">Order</text><polygon fill="#181818" points="67,1787.5391,57,1791.5391,67,1795.5391,63,1791.5391" style="stroke:#181818;stroke-width:1.0;"/><line style="stroke:#181818;stroke-width:1.0;stroke-dasharray:2.0,2.0;" x1="61" x2="222" y1="1791.5391" y2="1791.5391"/><text fill="#000000" font-family="sans-serif" font-size="13" lengthAdjust="spacing" textLength="44" x="73" y="1786.6826">200 OK</text><rect fill="#EEEEEE" height="3" style="stroke:#EEEEEE;stroke-width:1.0;" width="1626" x="0" y="1820.7148"/><line style="stroke:#000000;stroke-width:1.0;" x1="0" x2="1626" y1="1820.7148" y2="1820.7148"/><line style="stroke:#000000;stroke-width:1.0;" x1="0" x2="1626" y1="1823.7148" y2="1823.7148"/><rect fill="#EEEEEE" height="24.3516" style="stroke:#000000;stroke-width:2.0;" width="156" x="735" y="1809.5391"/><text fill="#000000" font-family="sans-serif" font-size="13" font-weight="bold" lengthAdjust="spacing" textLength="138" x="741" y="1827.0342">Get prices of an order</text><polygon fill="#181818" points="206,1862.2422,216,1866.2422,206,1870.2422,210,1866.2422" style="stroke:#181818;stroke-width:1.0;"/><line style="stroke:#181818;stroke-width:1.0;" x1="56" x2="212" y1="1866.2422" y2="1866.2422"/><text fill="#000000" font-family="sans-serif" font-size="13" lengthAdjust="spacing" textLength="123" x="63" y="1861.3857">GET /orders/id/prices</text><polygon fill="#181818" points="552,1892.5938,562,1896.5938,552,1900.5938,556,1896.5938" style="stroke:#181818;stroke-width:1.0;"/><line style="stroke:#181818;stroke-width:1.0;" x1="228" x2="558" y1="1896.5938" y2="1896.5938"/><text fill="#000000" font-family="sans-serif" font-size="13" lengthAdjust="spacing" textLength="108" x="235" y="1891.7373">GetOrderPrices(id)</text><polygon fill="#181818" points="850,1922.9453,860,1926.9453,850,1930.9453,854,1926.9453" style="stroke:#181818;stroke-width:1.0;"/><line style="stroke:#181818;stroke-width:1.0;" x1="574" x2="856" y1="1926.9453" y2="1926.9453"/><text fill="#000000" font-family="sans-serif" font-size="13" lengthAdjust="spacing" textLength="65" x="581" y="1922.0889">GetById(id)</text><polygon fill="#181818" points="1578,1953.2969,1588,1957.2969,1578,1961.2969,1582,1957.2969" style="stroke:#181818;stroke-width:1.0;"/><line style="stroke:#181818;stroke-width:1.0;" x1="872" x2="1584" y1="1957.2969" y2="1957.2969"/><text fill="#000000" font-family="sans-serif" font-size="13" font-style="italic" lengthAdjust="spacing" textLength="236" x="883" y="1952.4404">Fetch a specific order from the database</text><polygon fill="#181818" points="883,1967.2969,873,1971.2969,883,1975.2969,879,1971.2969" style="stroke:#181818;stroke-width:1.0;"/><line style="stroke:#181818;stroke-width:1.0;stroke-dasharray:2.0,2.0;" x1="877" x2="1594" y1="1971.2969" y2="1971.2969"/><polygon fill="#181818" points="585,1997.6484,575,2001.6484,585,2005.6484,581,2001.6484" style="stroke:#181818;stroke-width:1.0;"/><line style="stroke:#181818;stroke-width:1.0;stroke-dasharray:2.0,2.0;" x1="579" x2="866" y1="2001.6484" y2="2001.6484"/><text fill="#000000" font-family="sans-serif" font-size="13" lengthAdjust="spacing" textLength="32" x="591" y="1996.792">Order</text><path d="M10,2016.6484 L71,2016.6484 L71,2025 L61,2035 L10,2035 L10,2016.6484 " fill="#EEEEEE" style="stroke:#000000;stroke-width:1.5;"/><rect fill="none" height="79.0547" style="stroke:#000000;stroke-width:1.5;" width="618" x="10" y="2016.6484"/><text fill="#000000" font-family="sans-serif" font-size="13" font-weight="bold" lengthAdjust="spacing" textLength="16" x="25" y="2031.1436">alt</text><text fill="#000000" font-family="sans-serif" font-size="11" font-weight="bold" lengthAdjust="spacing" textLength="77" x="86" y="2030.0674">[order == null]</text><polygon fill="#181818" points="239,2053.3516,229,2057.3516,239,2061.3516,235,2057.3516" style="stroke:#181818;stroke-width:1.0;"/><line style="stroke:#181818;stroke-width:1.0;" x1="233" x2="563" y1="2057.3516" y2="2057.3516"/><text fill="#000000" font-family="sans-serif" font-size="13" lengthAdjust="spacing" textLength="256" x="245" y="2052.4951">throw NotFoundException("Order not found")</text><polygon fill="#181818" points="67,2083.7031,57,2087.7031,67,2091.7031,63,2087.7031" style="stroke:#181818;stroke-width:1.0;"/><line style="stroke:#181818;stroke-width:1.0;stroke-dasharray:2.0,2.0;" x1="61" x2="217" y1="2087.7031" y2="2087.7031"/><text fill="#000000" font-family="sans-serif" font-size="13" lengthAdjust="spacing" textLength="85" x="73" y="2082.8467">404 Not Found</text><polygon fill="#181818" points="850,2121.0547,860,2125.0547,850,2129.0547,854,2125.0547" style="stroke:#181818;stroke-width:1.0;"/><line style="stroke:#181818;stroke-width:1.0;" x1="574" x2="856" y1="2125.0547" y2="2125.0547"/><text fill="#000000" font-family="sans-serif" font-size="13" lengthAdjust="spacing" textLength="269" x="581" y="2120.1982">GetPricesFrom(order.beverageId, order.priceId)</text><polygon fill="#181818" points="1578,2151.4063,1588,2155.4063,1578,2159.4063,1582,2155.4063" style="stroke:#181818;stroke-width:1.0;"/><line style="stroke:#181818;stroke-width:1.0;" x1="872" x2="1584" y1="2155.4063" y2="2155.4063"/><text fill="#000000" font-family="sans-serif" font-size="13" font-style="italic" lengthAdjust="spacing" textLength="219" x="883" y="2150.5498">Fetch prices from a specific beverage</text><polygon fill="#181818" points="883,2165.4063,873,2169.4063,883,2173.4063,879,2169.4063" style="stroke:#181818;stroke-width:1.0;"/><line style="stroke:#181818;stroke-width:1.0;stroke-dasharray:2.0,2.0;" x1="877" x2="1594" y1="2169.4063" y2="2169.4063"/><polygon fill="#181818" points="585,2195.7578,575,2199.7578,585,2203.7578,581,2199.7578" style="stroke:#181818;stroke-width:1.0;"/><line style="stroke:#181818;stroke-width:1.0;stroke-dasharray:2.0,2.0;" x1="579" x2="866" y1="2199.7578" y2="2199.7578"/><text fill="#000000" font-family="sans-serif" font-size="13" lengthAdjust="spacing" textLength="67" x="591" y="2194.9014">List&lt;Price&gt;</text><path d="M10,2214.7578 L71,2214.7578 L71,2223.1094 L61,2233.1094 L10,2233.1094 L10,2214.7578 " fill="#EEEEEE" style="stroke:#000000;stroke-width:1.5;"/><rect fill="none" height="79.0547" style="stroke:#000000;stroke-width:1.5;" width="618" x="10" y="2214.7578"/><text fill="#000000" font-family="sans-serif" font-size="13" font-weight="bold" lengthAdjust="spacing" textLength="16" x="25" y="2229.2529">alt</text><text fill="#000000" font-family="sans-serif" font-size="11" font-weight="bold" lengthAdjust="spacing" textLength="81" x="86" y="2228.1768">[prices == null]</text><polygon fill="#181818" points="239,2251.4609,229,2255.4609,239,2259.4609,235,2255.4609" style="stroke:#181818;stroke-width:1.0;"/><line style="stroke:#181818;stroke-width:1.0;" x1="233" x2="563" y1="2255.4609" y2="2255.4609"/><text fill="#000000" font-family="sans-serif" font-size="13" lengthAdjust="spacing" textLength="312" x="245" y="2250.6045">throw NotFoundException("Prices not found for order")</text><polygon fill="#181818" points="67,2281.8125,57,2285.8125,67,2289.8125,63,2285.8125" style="stroke:#181818;stroke-width:1.0;"/><line style="stroke:#181818;stroke-width:1.0;stroke-dasharray:2.0,2.0;" x1="61" x2="217" y1="2285.8125" y2="2285.8125"/><text fill="#000000" font-family="sans-serif" font-size="13" lengthAdjust="spacing" textLength="85" x="73" y="2280.9561">404 Not Found</text><polygon fill="#181818" points="239,2319.1641,229,2323.1641,239,2327.1641,235,2323.1641" style="stroke:#181818;stroke-width:1.0;"/><line style="stroke:#181818;stroke-width:1.0;stroke-dasharray:2.0,2.0;" x1="233" x2="568" y1="2323.1641" y2="2323.1641"/><text fill="#000000" font-family="sans-serif" font-size="13" lengthAdjust="spacing" textLength="67" x="245" y="2318.3076">List&lt;Price&gt;</text><polygon fill="#181818" points="67,2349.5156,57,2353.5156,67,2357.5156,63,2353.5156" style="stroke:#181818;stroke-width:1.0;"/><line style="stroke:#181818;stroke-width:1.0;stroke-dasharray:2.0,2.0;" x1="61" x2="222" y1="2353.5156" y2="2353.5156"/><text fill="#000000" font-family="sans-serif" font-size="13" lengthAdjust="spacing" textLength="44" x="73" y="2348.6592">200 OK</text><!--SRC=[xLTBJnin4BxlhnXn2X8aeU8K0LL11ABIaX9erQEpTeYbO2-s2UJVru-rr_i8a002LLmIx-pCU1wVv_DcI2YQqWmn1Nt1cI8C0v8moTT95YcS2qp4aNuX-6n6XD7ZHfG6KLrzHCISfYJeIlrSrxeW6PTKSR48YaABIef3eVsK5JCZgYaUaZaHwBgYEoRpckPFhkY4faXHpg90cH7N0ZNxKtPzpAuf8tvtBI1MK58TAK4pgoFjAi58eJ6I17uiHh_Ep0ilIPBzVJWI12cjprpge4L9ubi0smVLClTWU3wwX8whQ89IHUV6GRKRbUVWoUJMotUrzMzXnJShVcm1mgfYg_NRbzpPRfQrGbDwS4BKcVOdbUrTdmlV6hDVspyCSBHrr5A_CavzkNhGwK2Vg7GAQafWPhqx8-0JAnldRhLcuJQKEtHYEmurmQIk6WLGJjvc4viKVkhrSfLmjMvPIRNGXM5ZjYCqrz00HkvpT2XkymoPF9rdiKrJdj7MvJnjUsEJIhWDUUgE7ou6k4Nnfedzp-bVk3mTZBwkbh9lC58WqKrkOsRIpOVAlEbWDbiMPoa-ZThU7_8UVEdkv2Z1DVFeI2TJYWbCE5TZ_c27nr3mb4YvxlJeKDp9d8jr1qaUWPi656_1xPsUWbGj6aSAcgcW07kmqu2bE5Or5VmUVgCPnNPE7p-a93CBFtUMLdItsuL3XE62tDxfAP4OEdi6RjU1AWAPaTHmoOV2gYbrm0IxcysULMlDYdr-n_0gbTurLc3DwdLs91Y6e9baGxIu8KmDZ0EL4v7TIrRO971n3qRQiUSCcpJ1CO5_amkMjlpqRmHXGUnXvHah4Ba_7UFoJd612pUbKFCRHWy6BDKPIJBYCtp5g9AFH-Ll9lb_3M9N6RQtWm9ZWU8eMnLaVhCcY4KohxRilBYOrkApUZeEegldyYwqzX-DXxUZiYwSVt-KnVGyqZKjE6ky08hrb7g2k4wEOzvQbw-MTtF9dVUJ8zwO8zu9VlRUBis7GtHvMWc27UVY1KYqQTel2la9oDS4v8RTmv2rlYxhDnillCMK2-ywrjSLSoJO7eUlsIsdshRG6ApNcnoPjYDDnFzcZJcZKktPv0wMjoUFxeNzSIKi6gH_XJFVUFLXybXQhp9I_W40]--></g></svg>