<?xml version="1.0" encoding="us-ascii" standalone="no"?><svg xmlns="http://www.w3.org/2000/svg" xmlns:xlink="http://www.w3.org/1999/xlink" contentStyleType="text/css" height="2466px" preserveAspectRatio="none" style="width:1160px;height:2466px;background:#FFFFFF;" version="1.1" viewBox="0 0 1160 2466" width="1160px" zoomAndPan="magnify"><defs/><g><rect fill="#FFFFFF" height="497.2734" style="stroke:#181818;stroke-width:1.0;" width="10" x="238" y="145.3125"/><rect fill="#FFFFFF" height="634.6797" style="stroke:#181818;stroke-width:1.0;" width="10" x="238" y="717.2891"/><rect fill="#FFFFFF" height="196.1094" style="stroke:#181818;stroke-width:1.0;" width="10" x="238" y="1426.6719"/><rect fill="#FFFFFF" height="289.1641" style="stroke:#181818;stroke-width:1.0;" width="10" x="238" y="1697.4844"/><rect fill="#FFFFFF" height="380.2188" style="stroke:#181818;stroke-width:1.0;" width="10" x="238" y="2061.3516"/><rect fill="#FFFFFF" height="375.8672" style="stroke:#181818;stroke-width:1.0;" width="10" x="430" y="236.3672"/><rect fill="#FFFFFF" height="573.9766" style="stroke:#181818;stroke-width:1.0;" width="10" x="430" y="747.6406"/><rect fill="#FFFFFF" height="135.4063" style="stroke:#181818;stroke-width:1.0;" width="10" x="430" y="1457.0234"/><rect fill="#FFFFFF" height="228.4609" style="stroke:#181818;stroke-width:1.0;" width="10" x="430" y="1727.8359"/><rect fill="#FFFFFF" height="289.1641" style="stroke:#181818;stroke-width:1.0;" width="10" x="430" y="2091.7031"/><rect fill="#FFFFFF" height="74.7031" style="stroke:#181818;stroke-width:1.0;" width="10" x="649" y="446.4766"/><rect fill="#FFFFFF" height="74.7031" style="stroke:#181818;stroke-width:1.0;" width="10" x="649" y="777.9922"/><rect fill="#FFFFFF" height="74.7031" style="stroke:#181818;stroke-width:1.0;" width="10" x="649" y="1155.8594"/><rect fill="#FFFFFF" height="74.7031" style="stroke:#181818;stroke-width:1.0;" width="10" x="649" y="1487.375"/><rect fill="#FFFFFF" height="74.7031" style="stroke:#181818;stroke-width:1.0;" width="10" x="649" y="1758.1875"/><rect fill="#FFFFFF" height="74.7031" style="stroke:#181818;stroke-width:1.0;" width="10" x="649" y="2122.0547"/><rect fill="#FFFFFF" height="30.3516" style="stroke:#181818;stroke-width:1.0;" width="10" x="649" y="2320.1641"/><rect fill="#FFFFFF" height="30.3516" style="stroke:#181818;stroke-width:1.0;" width="10" x="777" y="551.5313"/><rect fill="#FFFFFF" height="30.3516" style="stroke:#181818;stroke-width:1.0;" width="10" x="777" y="1260.9141"/><rect fill="#FFFFFF" height="30.3516" style="stroke:#181818;stroke-width:1.0;" width="10" x="777" y="2380.8672"/><rect fill="#FFFFFF" height="14" style="stroke:#181818;stroke-width:1.0;" width="10" x="1034.5" y="476.8281"/><rect fill="#FFFFFF" height="14" style="stroke:#181818;stroke-width:1.0;" width="10" x="1034.5" y="808.3438"/><rect fill="#FFFFFF" height="14" style="stroke:#181818;stroke-width:1.0;" width="10" x="1034.5" y="1186.2109"/><rect fill="#FFFFFF" height="14" style="stroke:#181818;stroke-width:1.0;" width="10" x="1034.5" y="1517.7266"/><rect fill="#FFFFFF" height="14" style="stroke:#181818;stroke-width:1.0;" width="10" x="1034.5" y="1788.5391"/><rect fill="#FFFFFF" height="14" style="stroke:#181818;stroke-width:1.0;" width="10" x="1034.5" y="2152.4063"/><rect fill="#FFFFFF" height="30.3516" style="stroke:#181818;stroke-width:1.0;" width="10" x="1107" y="175.6641"/><rect fill="none" height="79.0547" style="stroke:#000000;stroke-width:1.5;" width="477.5" x="10" y="294.7188"/><rect fill="none" height="79.0547" style="stroke:#000000;stroke-width:1.5;" width="477.5" x="10" y="867.6953"/><rect fill="none" height="79.0547" style="stroke:#000000;stroke-width:1.5;" width="477.5" x="10" y="1004.1016"/><rect fill="none" height="79.0547" style="stroke:#000000;stroke-width:1.5;" width="477.5" x="10" y="1847.8906"/><rect fill="none" height="79.0547" style="stroke:#000000;stroke-width:1.5;" width="477.5" x="10" y="2211.7578"/><line style="stroke:#181818;stroke-width:0.5;stroke-dasharray:5.0,5.0;" x1="56" x2="56" y1="68.6094" y2="2459.5703"/><line style="stroke:#181818;stroke-width:0.5;stroke-dasharray:5.0,5.0;" x1="243" x2="243" y1="68.6094" y2="2459.5703"/><line style="stroke:#181818;stroke-width:0.5;stroke-dasharray:5.0,5.0;" x1="434.5" x2="434.5" y1="68.6094" y2="2459.5703"/><line style="stroke:#181818;stroke-width:0.5;stroke-dasharray:5.0,5.0;" x1="654" x2="654" y1="68.6094" y2="2459.5703"/><line style="stroke:#181818;stroke-width:0.5;stroke-dasharray:5.0,5.0;" x1="782" x2="782" y1="68.6094" y2="2459.5703"/><line style="stroke:#181818;stroke-width:0.5;stroke-dasharray:5.0,5.0;" x1="952.5" x2="952.5" y1="68.6094" y2="2459.5703"/><line style="stroke:#181818;stroke-width:0.5;stroke-dasharray:5.0,5.0;" x1="1039.5" x2="1039.5" y1="68.6094" y2="2459.5703"/><line style="stroke:#181818;stroke-width:0.5;stroke-dasharray:5.0,5.0;" x1="1111.5" x2="1111.5" y1="68.6094" y2="2459.5703"/><rect fill="#E2E2F0" height="31.6094" rx="2.5" ry="2.5" style="stroke:#181818;stroke-width:0.5;" width="72" x="20" y="36"/><text fill="#000000" font-family="sans-serif" font-size="14" lengthAdjust="spacing" textLength="58" x="27" y="57.5332">Frontend</text><rect fill="#E2E2F0" height="31.6094" rx="2.5" ry="2.5" style="stroke:#181818;stroke-width:0.5;" width="100" x="193" y="36"/><text fill="#000000" font-family="sans-serif" font-size="14" lengthAdjust="spacing" textLength="86" x="200" y="57.5332">BevController</text><rect fill="#E2E2F0" height="31.6094" rx="2.5" ry="2.5" style="stroke:#181818;stroke-width:0.5;" width="85" x="392.5" y="36"/><text fill="#000000" font-family="sans-serif" font-size="14" lengthAdjust="spacing" textLength="71" x="399.5" y="57.5332">BevService</text><rect fill="#E2E2F0" height="31.6094" rx="2.5" ry="2.5" style="stroke:#181818;stroke-width:0.5;" width="106" x="601" y="36"/><text fill="#000000" font-family="sans-serif" font-size="14" lengthAdjust="spacing" textLength="92" x="608" y="57.5332">BevRepository</text><rect fill="#E2E2F0" height="31.6094" rx="2.5" ry="2.5" style="stroke:#181818;stroke-width:0.5;" width="130" x="717" y="36"/><text fill="#000000" font-family="sans-serif" font-size="14" lengthAdjust="spacing" textLength="116" x="724" y="57.5332">NotificationService</text><rect fill="#E2E2F0" height="31.6094" rx="2.5" ry="2.5" style="stroke:#181818;stroke-width:0.5;" width="101" x="902.5" y="36"/><text fill="#000000" font-family="sans-serif" font-size="14" lengthAdjust="spacing" textLength="87" x="909.5" y="57.5332">PricingEngine</text><text fill="#000000" font-family="sans-serif" font-size="14" lengthAdjust="spacing" textLength="46" x="1013.5" y="65.5332">MySQL</text><path d="M1021.5,15 C1021.5,5 1039.5,5 1039.5,5 C1039.5,5 1057.5,5 1057.5,15 L1057.5,41 C1057.5,51 1039.5,51 1039.5,51 C1039.5,51 1021.5,51 1021.5,41 L1021.5,15 " fill="#E2E2F0" style="stroke:#181818;stroke-width:1.5;"/><path d="M1021.5,15 C1021.5,25 1039.5,25 1039.5,25 C1039.5,25 1057.5,25 1057.5,15 " fill="none" style="stroke:#181818;stroke-width:1.5;"/><rect fill="#E2E2F0" height="31.6094" rx="2.5" ry="2.5" style="stroke:#181818;stroke-width:0.5;" width="73" x="1075.5" y="36"/><text fill="#000000" font-family="sans-serif" font-size="14" lengthAdjust="spacing" textLength="59" x="1082.5" y="57.5332">ImageAPI</text><rect fill="#FFFFFF" height="497.2734" style="stroke:#181818;stroke-width:1.0;" width="10" x="238" y="145.3125"/><rect fill="#FFFFFF" height="634.6797" style="stroke:#181818;stroke-width:1.0;" width="10" x="238" y="717.2891"/><rect fill="#FFFFFF" height="196.1094" style="stroke:#181818;stroke-width:1.0;" width="10" x="238" y="1426.6719"/><rect fill="#FFFFFF" height="289.1641" style="stroke:#181818;stroke-width:1.0;" width="10" x="238" y="1697.4844"/><rect fill="#FFFFFF" height="380.2188" style="stroke:#181818;stroke-width:1.0;" width="10" x="238" y="2061.3516"/><rect fill="#FFFFFF" height="375.8672" style="stroke:#181818;stroke-width:1.0;" width="10" x="430" y="236.3672"/><rect fill="#FFFFFF" height="573.9766" style="stroke:#181818;stroke-width:1.0;" width="10" x="430" y="747.6406"/><rect fill="#FFFFFF" height="135.4063" style="stroke:#181818;stroke-width:1.0;" width="10" x="430" y="1457.0234"/><rect fill="#FFFFFF" height="228.4609" style="stroke:#181818;stroke-width:1.0;" width="10" x="430" y="1727.8359"/><rect fill="#FFFFFF" height="289.1641" style="stroke:#181818;stroke-width:1.0;" width="10" x="430" y="2091.7031"/><rect fill="#FFFFFF" height="74.7031" style="stroke:#181818;stroke-width:1.0;" width="10" x="649" y="446.4766"/><rect fill="#FFFFFF" height="74.7031" style="stroke:#181818;stroke-width:1.0;" width="10" x="649" y="777.9922"/><rect fill="#FFFFFF" height="74.7031" style="stroke:#181818;stroke-width:1.0;" width="10" x="649" y="1155.8594"/><rect fill="#FFFFFF" height="74.7031" style="stroke:#181818;stroke-width:1.0;" width="10" x="649" y="1487.375"/><rect fill="#FFFFFF" height="74.7031" style="stroke:#181818;stroke-width:1.0;" width="10" x="649" y="1758.1875"/><rect fill="#FFFFFF" height="74.7031" style="stroke:#181818;stroke-width:1.0;" width="10" x="649" y="2122.0547"/><rect fill="#FFFFFF" height="30.3516" style="stroke:#181818;stroke-width:1.0;" width="10" x="649" y="2320.1641"/><rect fill="#FFFFFF" height="30.3516" style="stroke:#181818;stroke-width:1.0;" width="10" x="777" y="551.5313"/><rect fill="#FFFFFF" height="30.3516" style="stroke:#181818;stroke-width:1.0;" width="10" x="777" y="1260.9141"/><rect fill="#FFFFFF" height="30.3516" style="stroke:#181818;stroke-width:1.0;" width="10" x="777" y="2380.8672"/><rect fill="#FFFFFF" height="14" style="stroke:#181818;stroke-width:1.0;" width="10" x="1034.5" y="476.8281"/><rect fill="#FFFFFF" height="14" style="stroke:#181818;stroke-width:1.0;" width="10" x="1034.5" y="808.3438"/><rect fill="#FFFFFF" height="14" style="stroke:#181818;stroke-width:1.0;" width="10" x="1034.5" y="1186.2109"/><rect fill="#FFFFFF" height="14" style="stroke:#181818;stroke-width:1.0;" width="10" x="1034.5" y="1517.7266"/><rect fill="#FFFFFF" height="14" style="stroke:#181818;stroke-width:1.0;" width="10" x="1034.5" y="1788.5391"/><rect fill="#FFFFFF" height="14" style="stroke:#181818;stroke-width:1.0;" width="10" x="1034.5" y="2152.4063"/><rect fill="#FFFFFF" height="30.3516" style="stroke:#181818;stroke-width:1.0;" width="10" x="1107" y="175.6641"/><rect fill="#EEEEEE" height="3" style="stroke:#EEEEEE;stroke-width:1.0;" width="1153.5" x="0" y="99.7852"/><line style="stroke:#000000;stroke-width:1.0;" x1="0" x2="1153.5" y1="99.7852" y2="99.7852"/><line style="stroke:#000000;stroke-width:1.0;" x1="0" x2="1153.5" y1="102.7852" y2="102.7852"/><rect fill="#EEEEEE" height="24.3516" style="stroke:#000000;stroke-width:2.0;" width="242" x="455.75" y="88.6094"/><text fill="#000000" font-family="sans-serif" font-size="13" font-weight="bold" lengthAdjust="spacing" textLength="224" x="461.75" y="106.1045">Create a new beverage with image</text><polygon fill="#181818" points="226,141.3125,236,145.3125,226,149.3125,230,145.3125" style="stroke:#181818;stroke-width:1.0;"/><line style="stroke:#181818;stroke-width:1.0;" x1="56" x2="232" y1="145.3125" y2="145.3125"/><text fill="#000000" font-family="sans-serif" font-size="13" lengthAdjust="spacing" textLength="163" x="63" y="140.4561">POST /beverages/withImage</text><polygon fill="#181818" points="1095,171.6641,1105,175.6641,1095,179.6641,1099,175.6641" style="stroke:#181818;stroke-width:1.0;"/><line style="stroke:#181818;stroke-width:1.0;" x1="248" x2="1101" y1="175.6641" y2="175.6641"/><text fill="#000000" font-family="sans-serif" font-size="13" lengthAdjust="spacing" textLength="83" x="255" y="170.8076">UploadImage()</text><polygon fill="#181818" points="259,202.0156,249,206.0156,259,210.0156,255,206.0156" style="stroke:#181818;stroke-width:1.0;"/><line style="stroke:#181818;stroke-width:1.0;stroke-dasharray:2.0,2.0;" x1="253" x2="1111" y1="206.0156" y2="206.0156"/><text fill="#000000" font-family="sans-serif" font-size="13" lengthAdjust="spacing" textLength="51" x="265" y="201.1592">ImageUrl</text><polygon fill="#181818" points="418,232.3672,428,236.3672,418,240.3672,422,236.3672" style="stroke:#181818;stroke-width:1.0;"/><line style="stroke:#181818;stroke-width:1.0;" x1="248" x2="424" y1="236.3672" y2="236.3672"/><text fill="#000000" font-family="sans-serif" font-size="13" lengthAdjust="spacing" textLength="64" x="255" y="231.5107">Create(dto)</text><line style="stroke:#181818;stroke-width:1.0;" x1="440" x2="482" y1="266.7188" y2="266.7188"/><line style="stroke:#181818;stroke-width:1.0;" x1="482" x2="482" y1="266.7188" y2="279.7188"/><line style="stroke:#181818;stroke-width:1.0;" x1="441" x2="482" y1="279.7188" y2="279.7188"/><polygon fill="#181818" points="451,275.7188,441,279.7188,451,283.7188,447,279.7188" style="stroke:#181818;stroke-width:1.0;"/><text fill="#000000" font-family="sans-serif" font-size="13" lengthAdjust="spacing" textLength="85" x="447" y="261.8623">Validate...(dto)</text><path d="M10,294.7188 L71,294.7188 L71,303.0703 L61,313.0703 L10,313.0703 L10,294.7188 " fill="#EEEEEE" style="stroke:#000000;stroke-width:1.5;"/><rect fill="none" height="79.0547" style="stroke:#000000;stroke-width:1.5;" width="477.5" x="10" y="294.7188"/><text fill="#000000" font-family="sans-serif" font-size="13" font-weight="bold" lengthAdjust="spacing" textLength="16" x="25" y="309.2139">alt</text><text fill="#000000" font-family="sans-serif" font-size="11" font-weight="bold" lengthAdjust="spacing" textLength="88" x="86" y="308.1377">[dto is not valid]</text><polygon fill="#181818" points="259,331.4219,249,335.4219,259,339.4219,255,335.4219" style="stroke:#181818;stroke-width:1.0;"/><line style="stroke:#181818;stroke-width:1.0;" x1="253" x2="429" y1="335.4219" y2="335.4219"/><text fill="#000000" font-family="sans-serif" font-size="13" lengthAdjust="spacing" textLength="158" x="265" y="330.5654">throw ValidationException()</text><polygon fill="#181818" points="67,361.7734,57,365.7734,67,369.7734,63,365.7734" style="stroke:#181818;stroke-width:1.0;"/><line style="stroke:#181818;stroke-width:1.0;stroke-dasharray:2.0,2.0;" x1="61" x2="237" y1="365.7734" y2="365.7734"/><text fill="#000000" font-family="sans-serif" font-size="13" lengthAdjust="spacing" textLength="100" x="73" y="360.917">400 Bad Request</text><line style="stroke:#181818;stroke-width:1.0;" x1="440" x2="482" y1="403.125" y2="403.125"/><line style="stroke:#181818;stroke-width:1.0;" x1="482" x2="482" y1="403.125" y2="416.125"/><line style="stroke:#181818;stroke-width:1.0;" x1="441" x2="482" y1="416.125" y2="416.125"/><polygon fill="#181818" points="451,412.125,441,416.125,451,420.125,447,416.125" style="stroke:#181818;stroke-width:1.0;"/><text fill="#000000" font-family="sans-serif" font-size="13" lengthAdjust="spacing" textLength="97" x="447" y="398.2686">dto.ToBeverage()</text><polygon fill="#181818" points="637,442.4766,647,446.4766,637,450.4766,641,446.4766" style="stroke:#181818;stroke-width:1.0;"/><line style="stroke:#181818;stroke-width:1.0;" x1="440" x2="643" y1="446.4766" y2="446.4766"/><text fill="#000000" font-family="sans-serif" font-size="13" lengthAdjust="spacing" textLength="97" x="447" y="441.6201">Create(beverage)</text><polygon fill="#181818" points="1022.5,472.8281,1032.5,476.8281,1022.5,480.8281,1026.5,476.8281" style="stroke:#181818;stroke-width:1.0;"/><line style="stroke:#181818;stroke-width:1.0;" x1="659" x2="1028.5" y1="476.8281" y2="476.8281"/><text fill="#000000" font-family="sans-serif" font-size="13" font-style="italic" lengthAdjust="spacing" textLength="218" x="670" y="471.9717">Save a new beverage to the database</text><polygon fill="#181818" points="670,486.8281,660,490.8281,670,494.8281,666,490.8281" style="stroke:#181818;stroke-width:1.0;"/><line style="stroke:#181818;stroke-width:1.0;stroke-dasharray:2.0,2.0;" x1="664" x2="1038.5" y1="490.8281" y2="490.8281"/><polygon fill="#181818" points="451,517.1797,441,521.1797,451,525.1797,447,521.1797" style="stroke:#181818;stroke-width:1.0;"/><line style="stroke:#181818;stroke-width:1.0;stroke-dasharray:2.0,2.0;" x1="445" x2="653" y1="521.1797" y2="521.1797"/><text fill="#000000" font-family="sans-serif" font-size="13" lengthAdjust="spacing" textLength="53" x="457" y="516.3232">Beverage</text><polygon fill="#181818" points="765,547.5313,775,551.5313,765,555.5313,769,551.5313" style="stroke:#181818;stroke-width:1.0;"/><line style="stroke:#181818;stroke-width:1.0;" x1="440" x2="771" y1="551.5313" y2="551.5313"/><text fill="#000000" font-family="sans-serif" font-size="13" lengthAdjust="spacing" textLength="251" x="447" y="546.6748">SendBeverageCreatedNotification(beverage)</text><polygon fill="#181818" points="941,577.8828,951,581.8828,941,585.8828,945,581.8828" style="stroke:#181818;stroke-width:1.0;"/><line style="stroke:#181818;stroke-width:1.0;" x1="782" x2="947" y1="581.8828" y2="581.8828"/><text fill="#000000" font-family="sans-serif" font-size="13" lengthAdjust="spacing" textLength="139" x="789" y="577.0264">POST /beverageCreated</text><polygon fill="#181818" points="259,608.2344,249,612.2344,259,616.2344,255,612.2344" style="stroke:#181818;stroke-width:1.0;"/><line style="stroke:#181818;stroke-width:1.0;stroke-dasharray:2.0,2.0;" x1="253" x2="434" y1="612.2344" y2="612.2344"/><text fill="#000000" font-family="sans-serif" font-size="13" lengthAdjust="spacing" textLength="53" x="265" y="607.3779">Beverage</text><polygon fill="#181818" points="67,638.5859,57,642.5859,67,646.5859,63,642.5859" style="stroke:#181818;stroke-width:1.0;"/><line style="stroke:#181818;stroke-width:1.0;stroke-dasharray:2.0,2.0;" x1="61" x2="242" y1="642.5859" y2="642.5859"/><text fill="#000000" font-family="sans-serif" font-size="13" lengthAdjust="spacing" textLength="70" x="73" y="637.7295">201 Created</text><rect fill="#EEEEEE" height="3" style="stroke:#EEEEEE;stroke-width:1.0;" width="1153.5" x="0" y="671.7617"/><line style="stroke:#000000;stroke-width:1.0;" x1="0" x2="1153.5" y1="671.7617" y2="671.7617"/><line style="stroke:#000000;stroke-width:1.0;" x1="0" x2="1153.5" y1="674.7617" y2="674.7617"/><rect fill="#EEEEEE" height="24.3516" style="stroke:#000000;stroke-width:2.0;" width="139" x="507.25" y="660.5859"/><text fill="#000000" font-family="sans-serif" font-size="13" font-weight="bold" lengthAdjust="spacing" textLength="121" x="513.25" y="678.0811">Update a beverage</text><polygon fill="#181818" points="226,713.2891,236,717.2891,226,721.2891,230,717.2891" style="stroke:#181818;stroke-width:1.0;"/><line style="stroke:#181818;stroke-width:1.0;" x1="56" x2="232" y1="717.2891" y2="717.2891"/><text fill="#000000" font-family="sans-serif" font-size="13" lengthAdjust="spacing" textLength="105" x="63" y="712.4326">PUT /beverages/id</text><polygon fill="#181818" points="418,743.6406,428,747.6406,418,751.6406,422,747.6406" style="stroke:#181818;stroke-width:1.0;"/><line style="stroke:#181818;stroke-width:1.0;" x1="248" x2="424" y1="747.6406" y2="747.6406"/><text fill="#000000" font-family="sans-serif" font-size="13" lengthAdjust="spacing" textLength="67" x="255" y="742.7842">Update(dto)</text><polygon fill="#181818" points="637,773.9922,647,777.9922,637,781.9922,641,777.9922" style="stroke:#181818;stroke-width:1.0;"/><line style="stroke:#181818;stroke-width:1.0;" x1="440" x2="643" y1="777.9922" y2="777.9922"/><text fill="#000000" font-family="sans-serif" font-size="13" lengthAdjust="spacing" textLength="65" x="447" y="773.1357">GetById(id)</text><polygon fill="#181818" points="1022.5,804.3438,1032.5,808.3438,1022.5,812.3438,1026.5,808.3438" style="stroke:#181818;stroke-width:1.0;"/><line style="stroke:#181818;stroke-width:1.0;" x1="659" x2="1028.5" y1="808.3438" y2="808.3438"/><text fill="#000000" font-family="sans-serif" font-size="13" font-style="italic" lengthAdjust="spacing" textLength="260" x="670" y="803.4873">Fetch a specific beverage from the database</text><polygon fill="#181818" points="670,818.3438,660,822.3438,670,826.3438,666,822.3438" style="stroke:#181818;stroke-width:1.0;"/><line style="stroke:#181818;stroke-width:1.0;stroke-dasharray:2.0,2.0;" x1="664" x2="1038.5" y1="822.3438" y2="822.3438"/><polygon fill="#181818" points="451,848.6953,441,852.6953,451,856.6953,447,852.6953" style="stroke:#181818;stroke-width:1.0;"/><line style="stroke:#181818;stroke-width:1.0;stroke-dasharray:2.0,2.0;" x1="445" x2="653" y1="852.6953" y2="852.6953"/><text fill="#000000" font-family="sans-serif" font-size="13" lengthAdjust="spacing" textLength="53" x="457" y="847.8389">Beverage</text><path d="M10,867.6953 L71,867.6953 L71,876.0469 L61,886.0469 L10,886.0469 L10,867.6953 " fill="#EEEEEE" style="stroke:#000000;stroke-width:1.5;"/><rect fill="none" height="79.0547" style="stroke:#000000;stroke-width:1.5;" width="477.5" x="10" y="867.6953"/><text fill="#000000" font-family="sans-serif" font-size="13" font-weight="bold" lengthAdjust="spacing" textLength="16" x="25" y="882.1904">alt</text><text fill="#000000" font-family="sans-serif" font-size="11" font-weight="bold" lengthAdjust="spacing" textLength="98" x="86" y="881.1143">[beverage == null]</text><polygon fill="#181818" points="259,904.3984,249,908.3984,259,912.3984,255,908.3984" style="stroke:#181818;stroke-width:1.0;"/><line style="stroke:#181818;stroke-width:1.0;" x1="253" x2="429" y1="908.3984" y2="908.3984"/><text fill="#000000" font-family="sans-serif" font-size="13" lengthAdjust="spacing" textLength="157" x="265" y="903.542">throw NotFoundException()</text><polygon fill="#181818" points="67,934.75,57,938.75,67,942.75,63,938.75" style="stroke:#181818;stroke-width:1.0;"/><line style="stroke:#181818;stroke-width:1.0;stroke-dasharray:2.0,2.0;" x1="61" x2="237" y1="938.75" y2="938.75"/><text fill="#000000" font-family="sans-serif" font-size="13" lengthAdjust="spacing" textLength="85" x="73" y="933.8936">404 Not Found</text><line style="stroke:#181818;stroke-width:1.0;" x1="440" x2="482" y1="976.1016" y2="976.1016"/><line style="stroke:#181818;stroke-width:1.0;" x1="482" x2="482" y1="976.1016" y2="989.1016"/><line style="stroke:#181818;stroke-width:1.0;" x1="441" x2="482" y1="989.1016" y2="989.1016"/><polygon fill="#181818" points="451,985.1016,441,989.1016,451,993.1016,447,989.1016" style="stroke:#181818;stroke-width:1.0;"/><text fill="#000000" font-family="sans-serif" font-size="13" lengthAdjust="spacing" textLength="85" x="447" y="971.2451">Validate...(dto)</text><path d="M10,1004.1016 L71,1004.1016 L71,1012.4531 L61,1022.4531 L10,1022.4531 L10,1004.1016 " fill="#EEEEEE" style="stroke:#000000;stroke-width:1.5;"/><rect fill="none" height="79.0547" style="stroke:#000000;stroke-width:1.5;" width="477.5" x="10" y="1004.1016"/><text fill="#000000" font-family="sans-serif" font-size="13" font-weight="bold" lengthAdjust="spacing" textLength="16" x="25" y="1018.5967">alt</text><text fill="#000000" font-family="sans-serif" font-size="11" font-weight="bold" lengthAdjust="spacing" textLength="88" x="86" y="1017.5205">[dto is not valid]</text><polygon fill="#181818" points="259,1040.8047,249,1044.8047,259,1048.8047,255,1044.8047" style="stroke:#181818;stroke-width:1.0;"/><line style="stroke:#181818;stroke-width:1.0;" x1="253" x2="429" y1="1044.8047" y2="1044.8047"/><text fill="#000000" font-family="sans-serif" font-size="13" lengthAdjust="spacing" textLength="158" x="265" y="1039.9482">throw ValidationException()</text><polygon fill="#181818" points="67,1071.1563,57,1075.1563,67,1079.1563,63,1075.1563" style="stroke:#181818;stroke-width:1.0;"/><line style="stroke:#181818;stroke-width:1.0;stroke-dasharray:2.0,2.0;" x1="61" x2="237" y1="1075.1563" y2="1075.1563"/><text fill="#000000" font-family="sans-serif" font-size="13" lengthAdjust="spacing" textLength="100" x="73" y="1070.2998">400 Bad Request</text><line style="stroke:#181818;stroke-width:1.0;" x1="440" x2="482" y1="1112.5078" y2="1112.5078"/><line style="stroke:#181818;stroke-width:1.0;" x1="482" x2="482" y1="1112.5078" y2="1125.5078"/><line style="stroke:#181818;stroke-width:1.0;" x1="441" x2="482" y1="1125.5078" y2="1125.5078"/><polygon fill="#181818" points="451,1121.5078,441,1125.5078,451,1129.5078,447,1125.5078" style="stroke:#181818;stroke-width:1.0;"/><text fill="#000000" font-family="sans-serif" font-size="13" lengthAdjust="spacing" textLength="195" x="447" y="1107.6514">dto.ToBeverage(existingBeverage)</text><polygon fill="#181818" points="637,1151.8594,647,1155.8594,637,1159.8594,641,1155.8594" style="stroke:#181818;stroke-width:1.0;"/><line style="stroke:#181818;stroke-width:1.0;" x1="440" x2="643" y1="1155.8594" y2="1155.8594"/><text fill="#000000" font-family="sans-serif" font-size="13" lengthAdjust="spacing" textLength="100" x="447" y="1151.0029">Update(beverage)</text><polygon fill="#181818" points="1022.5,1182.2109,1032.5,1186.2109,1022.5,1190.2109,1026.5,1186.2109" style="stroke:#181818;stroke-width:1.0;"/><line style="stroke:#181818;stroke-width:1.0;" x1="659" x2="1028.5" y1="1186.2109" y2="1186.2109"/><text fill="#000000" font-family="sans-serif" font-size="13" font-style="italic" lengthAdjust="spacing" textLength="252" x="670" y="1181.3545">Update a specific beverage in the database</text><polygon fill="#181818" points="670,1196.2109,660,1200.2109,670,1204.2109,666,1200.2109" style="stroke:#181818;stroke-width:1.0;"/><line style="stroke:#181818;stroke-width:1.0;stroke-dasharray:2.0,2.0;" x1="664" x2="1038.5" y1="1200.2109" y2="1200.2109"/><polygon fill="#181818" points="451,1226.5625,441,1230.5625,451,1234.5625,447,1230.5625" style="stroke:#181818;stroke-width:1.0;"/><line style="stroke:#181818;stroke-width:1.0;stroke-dasharray:2.0,2.0;" x1="445" x2="653" y1="1230.5625" y2="1230.5625"/><text fill="#000000" font-family="sans-serif" font-size="13" lengthAdjust="spacing" textLength="53" x="457" y="1225.7061">Beverage</text><polygon fill="#181818" points="765,1256.9141,775,1260.9141,765,1264.9141,769,1260.9141" style="stroke:#181818;stroke-width:1.0;"/><line style="stroke:#181818;stroke-width:1.0;" x1="440" x2="771" y1="1260.9141" y2="1260.9141"/><text fill="#000000" font-family="sans-serif" font-size="13" lengthAdjust="spacing" textLength="254" x="447" y="1256.0576">SendBeverageUpdatedNotification(beverage)</text><polygon fill="#181818" points="941,1287.2656,951,1291.2656,941,1295.2656,945,1291.2656" style="stroke:#181818;stroke-width:1.0;"/><line style="stroke:#181818;stroke-width:1.0;" x1="782" x2="947" y1="1291.2656" y2="1291.2656"/><text fill="#000000" font-family="sans-serif" font-size="13" lengthAdjust="spacing" textLength="142" x="789" y="1286.4092">POST /beverageUpdated</text><polygon fill="#181818" points="259,1317.6172,249,1321.6172,259,1325.6172,255,1321.6172" style="stroke:#181818;stroke-width:1.0;"/><line style="stroke:#181818;stroke-width:1.0;stroke-dasharray:2.0,2.0;" x1="253" x2="434" y1="1321.6172" y2="1321.6172"/><text fill="#000000" font-family="sans-serif" font-size="13" lengthAdjust="spacing" textLength="53" x="265" y="1316.7607">Beverage</text><polygon fill="#181818" points="67,1347.9688,57,1351.9688,67,1355.9688,63,1351.9688" style="stroke:#181818;stroke-width:1.0;"/><line style="stroke:#181818;stroke-width:1.0;stroke-dasharray:2.0,2.0;" x1="61" x2="242" y1="1351.9688" y2="1351.9688"/><text fill="#000000" font-family="sans-serif" font-size="13" lengthAdjust="spacing" textLength="44" x="73" y="1347.1123">200 OK</text><rect fill="#EEEEEE" height="3" style="stroke:#EEEEEE;stroke-width:1.0;" width="1153.5" x="0" y="1381.1445"/><line style="stroke:#000000;stroke-width:1.0;" x1="0" x2="1153.5" y1="1381.1445" y2="1381.1445"/><line style="stroke:#000000;stroke-width:1.0;" x1="0" x2="1153.5" y1="1384.1445" y2="1384.1445"/><rect fill="#EEEEEE" height="24.3516" style="stroke:#000000;stroke-width:2.0;" width="130" x="511.75" y="1369.9688"/><text fill="#000000" font-family="sans-serif" font-size="13" font-weight="bold" lengthAdjust="spacing" textLength="112" x="517.75" y="1387.4639">Get all beverages</text><polygon fill="#181818" points="226,1422.6719,236,1426.6719,226,1430.6719,230,1426.6719" style="stroke:#181818;stroke-width:1.0;"/><line style="stroke:#181818;stroke-width:1.0;" x1="56" x2="232" y1="1426.6719" y2="1426.6719"/><text fill="#000000" font-family="sans-serif" font-size="13" lengthAdjust="spacing" textLength="92" x="63" y="1421.8154">GET /beverages</text><polygon fill="#181818" points="418,1453.0234,428,1457.0234,418,1461.0234,422,1457.0234" style="stroke:#181818;stroke-width:1.0;"/><line style="stroke:#181818;stroke-width:1.0;" x1="248" x2="424" y1="1457.0234" y2="1457.0234"/><text fill="#000000" font-family="sans-serif" font-size="13" lengthAdjust="spacing" textLength="104" x="255" y="1452.167">GetAllBeverages()</text><polygon fill="#181818" points="637,1483.375,647,1487.375,637,1491.375,641,1487.375" style="stroke:#181818;stroke-width:1.0;"/><line style="stroke:#181818;stroke-width:1.0;" x1="440" x2="643" y1="1487.375" y2="1487.375"/><text fill="#000000" font-family="sans-serif" font-size="13" lengthAdjust="spacing" textLength="44" x="447" y="1482.5186">GetAll()</text><polygon fill="#181818" points="1022.5,1513.7266,1032.5,1517.7266,1022.5,1521.7266,1026.5,1517.7266" style="stroke:#181818;stroke-width:1.0;"/><line style="stroke:#181818;stroke-width:1.0;" x1="659" x2="1028.5" y1="1517.7266" y2="1517.7266"/><text fill="#000000" font-family="sans-serif" font-size="13" font-style="italic" lengthAdjust="spacing" textLength="224" x="670" y="1512.8701">Fetch all beverages from the database</text><polygon fill="#181818" points="670,1527.7266,660,1531.7266,670,1535.7266,666,1531.7266" style="stroke:#181818;stroke-width:1.0;"/><line style="stroke:#181818;stroke-width:1.0;stroke-dasharray:2.0,2.0;" x1="664" x2="1038.5" y1="1531.7266" y2="1531.7266"/><polygon fill="#181818" points="451,1558.0781,441,1562.0781,451,1566.0781,447,1562.0781" style="stroke:#181818;stroke-width:1.0;"/><line style="stroke:#181818;stroke-width:1.0;stroke-dasharray:2.0,2.0;" x1="445" x2="653" y1="1562.0781" y2="1562.0781"/><text fill="#000000" font-family="sans-serif" font-size="13" lengthAdjust="spacing" textLength="90" x="457" y="1557.2217">List&lt;Beverage&gt;</text><polygon fill="#181818" points="259,1588.4297,249,1592.4297,259,1596.4297,255,1592.4297" style="stroke:#181818;stroke-width:1.0;"/><line style="stroke:#181818;stroke-width:1.0;stroke-dasharray:2.0,2.0;" x1="253" x2="434" y1="1592.4297" y2="1592.4297"/><text fill="#000000" font-family="sans-serif" font-size="13" lengthAdjust="spacing" textLength="90" x="265" y="1587.5732">List&lt;Beverage&gt;</text><polygon fill="#181818" points="67,1618.7813,57,1622.7813,67,1626.7813,63,1622.7813" style="stroke:#181818;stroke-width:1.0;"/><line style="stroke:#181818;stroke-width:1.0;stroke-dasharray:2.0,2.0;" x1="61" x2="242" y1="1622.7813" y2="1622.7813"/><text fill="#000000" font-family="sans-serif" font-size="13" lengthAdjust="spacing" textLength="44" x="73" y="1617.9248">200 OK</text><rect fill="#EEEEEE" height="3" style="stroke:#EEEEEE;stroke-width:1.0;" width="1153.5" x="0" y="1651.957"/><line style="stroke:#000000;stroke-width:1.0;" x1="0" x2="1153.5" y1="1651.957" y2="1651.957"/><line style="stroke:#000000;stroke-width:1.0;" x1="0" x2="1153.5" y1="1654.957" y2="1654.957"/><rect fill="#EEEEEE" height="24.3516" style="stroke:#000000;stroke-width:2.0;" width="170" x="491.75" y="1640.7813"/><text fill="#000000" font-family="sans-serif" font-size="13" font-weight="bold" lengthAdjust="spacing" textLength="152" x="497.75" y="1658.2764">Get a beverage by its ID</text><polygon fill="#181818" points="226,1693.4844,236,1697.4844,226,1701.4844,230,1697.4844" style="stroke:#181818;stroke-width:1.0;"/><line style="stroke:#181818;stroke-width:1.0;" x1="56" x2="232" y1="1697.4844" y2="1697.4844"/><text fill="#000000" font-family="sans-serif" font-size="13" lengthAdjust="spacing" textLength="106" x="63" y="1692.6279">GET /beverages/id</text><polygon fill="#181818" points="418,1723.8359,428,1727.8359,418,1731.8359,422,1727.8359" style="stroke:#181818;stroke-width:1.0;"/><line style="stroke:#181818;stroke-width:1.0;" x1="248" x2="424" y1="1727.8359" y2="1727.8359"/><text fill="#000000" font-family="sans-serif" font-size="13" lengthAdjust="spacing" textLength="65" x="255" y="1722.9795">GetById(id)</text><polygon fill="#181818" points="637,1754.1875,647,1758.1875,637,1762.1875,641,1758.1875" style="stroke:#181818;stroke-width:1.0;"/><line style="stroke:#181818;stroke-width:1.0;" x1="440" x2="643" y1="1758.1875" y2="1758.1875"/><text fill="#000000" font-family="sans-serif" font-size="13" lengthAdjust="spacing" textLength="65" x="447" y="1753.3311">GetById(id)</text><polygon fill="#181818" points="1022.5,1784.5391,1032.5,1788.5391,1022.5,1792.5391,1026.5,1788.5391" style="stroke:#181818;stroke-width:1.0;"/><line style="stroke:#181818;stroke-width:1.0;" x1="659" x2="1028.5" y1="1788.5391" y2="1788.5391"/><text fill="#000000" font-family="sans-serif" font-size="13" font-style="italic" lengthAdjust="spacing" textLength="260" x="670" y="1783.6826">Fetch a specific beverage from the database</text><polygon fill="#181818" points="670,1798.5391,660,1802.5391,670,1806.5391,666,1802.5391" style="stroke:#181818;stroke-width:1.0;"/><line style="stroke:#181818;stroke-width:1.0;stroke-dasharray:2.0,2.0;" x1="664" x2="1038.5" y1="1802.5391" y2="1802.5391"/><polygon fill="#181818" points="451,1828.8906,441,1832.8906,451,1836.8906,447,1832.8906" style="stroke:#181818;stroke-width:1.0;"/><line style="stroke:#181818;stroke-width:1.0;stroke-dasharray:2.0,2.0;" x1="445" x2="653" y1="1832.8906" y2="1832.8906"/><text fill="#000000" font-family="sans-serif" font-size="13" lengthAdjust="spacing" textLength="53" x="457" y="1828.0342">Beverage</text><path d="M10,1847.8906 L71,1847.8906 L71,1856.2422 L61,1866.2422 L10,1866.2422 L10,1847.8906 " fill="#EEEEEE" style="stroke:#000000;stroke-width:1.5;"/><rect fill="none" height="79.0547" style="stroke:#000000;stroke-width:1.5;" width="477.5" x="10" y="1847.8906"/><text fill="#000000" font-family="sans-serif" font-size="13" font-weight="bold" lengthAdjust="spacing" textLength="16" x="25" y="1862.3857">alt</text><text fill="#000000" font-family="sans-serif" font-size="11" font-weight="bold" lengthAdjust="spacing" textLength="98" x="86" y="1861.3096">[beverage == null]</text><polygon fill="#181818" points="259,1884.5938,249,1888.5938,259,1892.5938,255,1888.5938" style="stroke:#181818;stroke-width:1.0;"/><line style="stroke:#181818;stroke-width:1.0;" x1="253" x2="429" y1="1888.5938" y2="1888.5938"/><text fill="#000000" font-family="sans-serif" font-size="13" lengthAdjust="spacing" textLength="157" x="265" y="1883.7373">throw NotFoundException()</text><polygon fill="#181818" points="67,1914.9453,57,1918.9453,67,1922.9453,63,1918.9453" style="stroke:#181818;stroke-width:1.0;"/><line style="stroke:#181818;stroke-width:1.0;stroke-dasharray:2.0,2.0;" x1="61" x2="237" y1="1918.9453" y2="1918.9453"/><text fill="#000000" font-family="sans-serif" font-size="13" lengthAdjust="spacing" textLength="85" x="73" y="1914.0889">404 Not Found</text><polygon fill="#181818" points="259,1952.2969,249,1956.2969,259,1960.2969,255,1956.2969" style="stroke:#181818;stroke-width:1.0;"/><line style="stroke:#181818;stroke-width:1.0;stroke-dasharray:2.0,2.0;" x1="253" x2="434" y1="1956.2969" y2="1956.2969"/><text fill="#000000" font-family="sans-serif" font-size="13" lengthAdjust="spacing" textLength="53" x="265" y="1951.4404">Beverage</text><polygon fill="#181818" points="67,1982.6484,57,1986.6484,67,1990.6484,63,1986.6484" style="stroke:#181818;stroke-width:1.0;"/><line style="stroke:#181818;stroke-width:1.0;stroke-dasharray:2.0,2.0;" x1="61" x2="242" y1="1986.6484" y2="1986.6484"/><text fill="#000000" font-family="sans-serif" font-size="13" lengthAdjust="spacing" textLength="44" x="73" y="1981.792">200 OK</text><rect fill="#EEEEEE" height="3" style="stroke:#EEEEEE;stroke-width:1.0;" width="1153.5" x="0" y="2015.8242"/><line style="stroke:#000000;stroke-width:1.0;" x1="0" x2="1153.5" y1="2015.8242" y2="2015.8242"/><line style="stroke:#000000;stroke-width:1.0;" x1="0" x2="1153.5" y1="2018.8242" y2="2018.8242"/><rect fill="#EEEEEE" height="24.3516" style="stroke:#000000;stroke-width:2.0;" width="135" x="509.25" y="2004.6484"/><text fill="#000000" font-family="sans-serif" font-size="13" font-weight="bold" lengthAdjust="spacing" textLength="117" x="515.25" y="2022.1436">Delete a beverage</text><polygon fill="#181818" points="226,2057.3516,236,2061.3516,226,2065.3516,230,2061.3516" style="stroke:#181818;stroke-width:1.0;"/><line style="stroke:#181818;stroke-width:1.0;" x1="56" x2="232" y1="2061.3516" y2="2061.3516"/><text fill="#000000" font-family="sans-serif" font-size="13" lengthAdjust="spacing" textLength="130" x="63" y="2056.4951">DELETE /beverages/id</text><polygon fill="#181818" points="418,2087.7031,428,2091.7031,418,2095.7031,422,2091.7031" style="stroke:#181818;stroke-width:1.0;"/><line style="stroke:#181818;stroke-width:1.0;" x1="248" x2="424" y1="2091.7031" y2="2091.7031"/><text fill="#000000" font-family="sans-serif" font-size="13" lengthAdjust="spacing" textLength="55" x="255" y="2086.8467">Delete(id)</text><polygon fill="#181818" points="637,2118.0547,647,2122.0547,637,2126.0547,641,2122.0547" style="stroke:#181818;stroke-width:1.0;"/><line style="stroke:#181818;stroke-width:1.0;" x1="440" x2="643" y1="2122.0547" y2="2122.0547"/><text fill="#000000" font-family="sans-serif" font-size="13" lengthAdjust="spacing" textLength="65" x="447" y="2117.1982">GetById(id)</text><polygon fill="#181818" points="1022.5,2148.4063,1032.5,2152.4063,1022.5,2156.4063,1026.5,2152.4063" style="stroke:#181818;stroke-width:1.0;"/><line style="stroke:#181818;stroke-width:1.0;" x1="659" x2="1028.5" y1="2152.4063" y2="2152.4063"/><text fill="#000000" font-family="sans-serif" font-size="13" font-style="italic" lengthAdjust="spacing" textLength="260" x="670" y="2147.5498">Fetch a specific beverage from the database</text><polygon fill="#181818" points="670,2162.4063,660,2166.4063,670,2170.4063,666,2166.4063" style="stroke:#181818;stroke-width:1.0;"/><line style="stroke:#181818;stroke-width:1.0;stroke-dasharray:2.0,2.0;" x1="664" x2="1038.5" y1="2166.4063" y2="2166.4063"/><polygon fill="#181818" points="451,2192.7578,441,2196.7578,451,2200.7578,447,2196.7578" style="stroke:#181818;stroke-width:1.0;"/><line style="stroke:#181818;stroke-width:1.0;stroke-dasharray:2.0,2.0;" x1="445" x2="653" y1="2196.7578" y2="2196.7578"/><text fill="#000000" font-family="sans-serif" font-size="13" lengthAdjust="spacing" textLength="53" x="457" y="2191.9014">Beverage</text><path d="M10,2211.7578 L71,2211.7578 L71,2220.1094 L61,2230.1094 L10,2230.1094 L10,2211.7578 " fill="#EEEEEE" style="stroke:#000000;stroke-width:1.5;"/><rect fill="none" height="79.0547" style="stroke:#000000;stroke-width:1.5;" width="477.5" x="10" y="2211.7578"/><text fill="#000000" font-family="sans-serif" font-size="13" font-weight="bold" lengthAdjust="spacing" textLength="16" x="25" y="2226.2529">alt</text><text fill="#000000" font-family="sans-serif" font-size="11" font-weight="bold" lengthAdjust="spacing" textLength="66" x="86" y="2225.1768">[bev == null]</text><polygon fill="#181818" points="259,2248.4609,249,2252.4609,259,2256.4609,255,2252.4609" style="stroke:#181818;stroke-width:1.0;"/><line style="stroke:#181818;stroke-width:1.0;" x1="253" x2="429" y1="2252.4609" y2="2252.4609"/><text fill="#000000" font-family="sans-serif" font-size="13" lengthAdjust="spacing" textLength="157" x="265" y="2247.6045">throw NotFoundException()</text><polygon fill="#181818" points="67,2278.8125,57,2282.8125,67,2286.8125,63,2282.8125" style="stroke:#181818;stroke-width:1.0;"/><line style="stroke:#181818;stroke-width:1.0;stroke-dasharray:2.0,2.0;" x1="61" x2="237" y1="2282.8125" y2="2282.8125"/><text fill="#000000" font-family="sans-serif" font-size="13" lengthAdjust="spacing" textLength="85" x="73" y="2277.9561">404 Not Found</text><polygon fill="#181818" points="637,2316.1641,647,2320.1641,637,2324.1641,641,2320.1641" style="stroke:#181818;stroke-width:1.0;"/><line style="stroke:#181818;stroke-width:1.0;" x1="440" x2="643" y1="2320.1641" y2="2320.1641"/><text fill="#000000" font-family="sans-serif" font-size="13" lengthAdjust="spacing" textLength="55" x="447" y="2315.3076">Delete(id)</text><polygon fill="#181818" points="1027.5,2346.5156,1037.5,2350.5156,1027.5,2354.5156,1031.5,2350.5156" style="stroke:#181818;stroke-width:1.0;"/><line style="stroke:#181818;stroke-width:1.0;" x1="654" x2="1033.5" y1="2350.5156" y2="2350.5156"/><text fill="#000000" font-family="sans-serif" font-size="13" font-style="italic" lengthAdjust="spacing" textLength="248" x="665" y="2345.6592">Delete a specific beverage in the database</text><polygon fill="#181818" points="765,2376.8672,775,2380.8672,765,2384.8672,769,2380.8672" style="stroke:#181818;stroke-width:1.0;"/><line style="stroke:#181818;stroke-width:1.0;" x1="435" x2="771" y1="2380.8672" y2="2380.8672"/><text fill="#000000" font-family="sans-serif" font-size="13" lengthAdjust="spacing" textLength="250" x="442" y="2376.0107">SendBeverageDeletedNotification(beverage)</text><polygon fill="#181818" points="941,2407.2188,951,2411.2188,941,2415.2188,945,2411.2188" style="stroke:#181818;stroke-width:1.0;"/><line style="stroke:#181818;stroke-width:1.0;" x1="782" x2="947" y1="2411.2188" y2="2411.2188"/><text fill="#000000" font-family="sans-serif" font-size="13" lengthAdjust="spacing" textLength="138" x="789" y="2406.3623">POST /beverageDeleted</text><polygon fill="#181818" points="67,2437.5703,57,2441.5703,67,2445.5703,63,2441.5703" style="stroke:#181818;stroke-width:1.0;"/><line style="stroke:#181818;stroke-width:1.0;stroke-dasharray:2.0,2.0;" x1="61" x2="242" y1="2441.5703" y2="2441.5703"/><text fill="#000000" font-family="sans-serif" font-size="13" lengthAdjust="spacing" textLength="90" x="73" y="2436.7139">204 No Content</text><!--SRC=[xLR9ajem4BtxA_h875YIcXCLfchOfgYG31aWTs4te2gDvTXY-_j8jYJR6BDDmYILd2pB_LgzlDToG491NHeGNq0_vBv0tmCImLoldI1ZqCPrHsw7d34CbTKCrwxTs3STOxYcBcgxIBxjMxnWm2CgUBZJHg7So1bzvOBEgKi4vNx6dw-s2nv7eLpvYvw_e7vi5YGR66yuNIB8Z4G8NtRZRqFrtTCxEI-3LxB0nz506L2r9W5rd2Nr4EQSYndVEawh1PqGYP2dW8yR5Jg6qXGsL2mJ5BHQZcEg2DM7VAsQC7eUJw1kW55T8UEZ7U8AkbQ-yzNDlIc79hWcJ0F6YHUZAtSftaPl5b0jnX6ZfY5pF2m22sVgHZPr-XLFyBjSm75Jz3C7-4uObVN6MgscKKo0N02DsmbhzNqFcOrJB4E-CLua6tfR5mEra1dlXId1fl1Dk6yqe4qyUC4VAuo4epXzA3uPIct2sxeVYTECaMAcpTfqBPzwJ5xzL2Z3hYRKwp0cwm9PPF9YYTPEcgN-B3NjrseQIBPNrj2UdCtAv9D5P48r2LezDM4i2sHGIRfULeI7Sa_LQ5VAQKvz-uJNhhDnfMviP4KQb2HaOAKq-DZu00VEp4jCwNeQU8ckRPjE2NcQqx4ayRa2jbrApZnBJ0aFdr2qTmElGhqBADX7uIvbOb60hkfdcg7CxlLTgQXcGQRUuAyOEpaB92txVELxvq-2UuM165Gw1_woEOLR6WcfihQLvI6-Q89TCRUi78gieVuVFhwIs7_B-DAkRpY-6l3y-VZaaaC126EsGT6foVNKoqwkoyUMFF2HCPDIL3b_U4bOvVB9bSlj9ZDhACNroIJuS9I5nV8U1V-wZgU2dEs0YWW6tSiQVzMLLNO3_R-oRdHbtN2sAAfraU55lqNTth0twRsLPicn_ppBtksVAAbgIHUE5jKIvgmVXwlkz-I8illzW0hUTENhqqgl_2FwKZM6JlmkodNs4m00]--></g></svg>