<?xml version="1.0" encoding="us-ascii" standalone="no"?><svg xmlns="http://www.w3.org/2000/svg" xmlns:xlink="http://www.w3.org/1999/xlink" contentStyleType="text/css" height="896px" preserveAspectRatio="none" style="width:1046px;height:896px;background:#FFFFFF;" version="1.1" viewBox="0 0 1046 896" width="1046px" zoomAndPan="magnify"><defs/><g><rect fill="#FFFFFF" height="590.3281" style="stroke:#181818;stroke-width:1.0;" width="10" x="182" y="145.3125"/><rect fill="#FFFFFF" height="60.7031" style="stroke:#181818;stroke-width:1.0;" width="10" x="182" y="810.3438"/><rect fill="#FFFFFF" height="364.8672" style="stroke:#181818;stroke-width:1.0;" width="10" x="439" y="175.6641"/><rect fill="#FFFFFF" height="30.3516" style="stroke:#181818;stroke-width:1.0;" width="10" x="439" y="570.8828"/><rect fill="#FFFFFF" height="30.3516" style="stroke:#181818;stroke-width:1.0;" width="10" x="439" y="631.5859"/><rect fill="#FFFFFF" height="74.7031" style="stroke:#181818;stroke-width:1.0;" width="10" x="734" y="206.0156"/><rect fill="#FFFFFF" height="14" style="stroke:#181818;stroke-width:1.0;" width="10" x="1003" y="236.3672"/><rect fill="none" height="79.0547" style="stroke:#000000;stroke-width:1.5;" width="489" x="10" y="295.7188"/><rect fill="none" height="79.0547" style="stroke:#000000;stroke-width:1.5;" width="489" x="10" y="432.125"/><line style="stroke:#181818;stroke-width:0.5;stroke-dasharray:5.0,5.0;" x1="56" x2="56" y1="68.6094" y2="889.0469"/><line style="stroke:#181818;stroke-width:0.5;stroke-dasharray:5.0,5.0;" x1="186.5" x2="186.5" y1="68.6094" y2="889.0469"/><line style="stroke:#181818;stroke-width:0.5;stroke-dasharray:5.0,5.0;" x1="444" x2="444" y1="68.6094" y2="889.0469"/><line style="stroke:#181818;stroke-width:0.5;stroke-dasharray:5.0,5.0;" x1="738.5" x2="738.5" y1="68.6094" y2="889.0469"/><line style="stroke:#181818;stroke-width:0.5;stroke-dasharray:5.0,5.0;" x1="1008" x2="1008" y1="68.6094" y2="889.0469"/><rect fill="#E2E2F0" height="31.6094" rx="2.5" ry="2.5" style="stroke:#181818;stroke-width:0.5;" width="72" x="20" y="36"/><text fill="#000000" font-family="sans-serif" font-size="14" lengthAdjust="spacing" textLength="58" x="27" y="57.5332">Frontend</text><rect fill="#E2E2F0" height="31.6094" rx="2.5" ry="2.5" style="stroke:#181818;stroke-width:0.5;" width="105" x="134.5" y="36"/><text fill="#000000" font-family="sans-serif" font-size="14" lengthAdjust="spacing" textLength="91" x="141.5" y="57.5332">UserController</text><rect fill="#E2E2F0" height="31.6094" rx="2.5" ry="2.5" style="stroke:#181818;stroke-width:0.5;" width="90" x="399" y="36"/><text fill="#000000" font-family="sans-serif" font-size="14" lengthAdjust="spacing" textLength="76" x="406" y="57.5332">UserService</text><rect fill="#E2E2F0" height="31.6094" rx="2.5" ry="2.5" style="stroke:#181818;stroke-width:0.5;" width="111" x="683.5" y="36"/><text fill="#000000" font-family="sans-serif" font-size="14" lengthAdjust="spacing" textLength="97" x="690.5" y="57.5332">UserRepository</text><text fill="#000000" font-family="sans-serif" font-size="14" lengthAdjust="spacing" textLength="46" x="982" y="65.5332">MySQL</text><path d="M990,15 C990,5 1008,5 1008,5 C1008,5 1026,5 1026,15 L1026,41 C1026,51 1008,51 1008,51 C1008,51 990,51 990,41 L990,15 " fill="#E2E2F0" style="stroke:#181818;stroke-width:1.5;"/><path d="M990,15 C990,25 1008,25 1008,25 C1008,25 1026,25 1026,15 " fill="none" style="stroke:#181818;stroke-width:1.5;"/><rect fill="#FFFFFF" height="590.3281" style="stroke:#181818;stroke-width:1.0;" width="10" x="182" y="145.3125"/><rect fill="#FFFFFF" height="60.7031" style="stroke:#181818;stroke-width:1.0;" width="10" x="182" y="810.3438"/><rect fill="#FFFFFF" height="364.8672" style="stroke:#181818;stroke-width:1.0;" width="10" x="439" y="175.6641"/><rect fill="#FFFFFF" height="30.3516" style="stroke:#181818;stroke-width:1.0;" width="10" x="439" y="570.8828"/><rect fill="#FFFFFF" height="30.3516" style="stroke:#181818;stroke-width:1.0;" width="10" x="439" y="631.5859"/><rect fill="#FFFFFF" height="74.7031" style="stroke:#181818;stroke-width:1.0;" width="10" x="734" y="206.0156"/><rect fill="#FFFFFF" height="14" style="stroke:#181818;stroke-width:1.0;" width="10" x="1003" y="236.3672"/><rect fill="#EEEEEE" height="3" style="stroke:#EEEEEE;stroke-width:1.0;" width="1039" x="0" y="99.7852"/><line style="stroke:#000000;stroke-width:1.0;" x1="0" x2="1039" y1="99.7852" y2="99.7852"/><line style="stroke:#000000;stroke-width:1.0;" x1="0" x2="1039" y1="102.7852" y2="102.7852"/><rect fill="#EEEEEE" height="24.3516" style="stroke:#000000;stroke-width:2.0;" width="54" x="492.5" y="88.6094"/><text fill="#000000" font-family="sans-serif" font-size="13" font-weight="bold" lengthAdjust="spacing" textLength="36" x="498.5" y="106.1045">Login</text><polygon fill="#181818" points="170,141.3125,180,145.3125,170,149.3125,174,145.3125" style="stroke:#181818;stroke-width:1.0;"/><line style="stroke:#181818;stroke-width:1.0;" x1="56" x2="176" y1="145.3125" y2="145.3125"/><text fill="#000000" font-family="sans-serif" font-size="13" lengthAdjust="spacing" textLength="99" x="63" y="140.4561">POST /auth/login</text><polygon fill="#181818" points="427,171.6641,437,175.6641,427,179.6641,431,175.6641" style="stroke:#181818;stroke-width:1.0;"/><line style="stroke:#181818;stroke-width:1.0;" x1="192" x2="433" y1="175.6641" y2="175.6641"/><text fill="#000000" font-family="sans-serif" font-size="13" lengthAdjust="spacing" textLength="57" x="199" y="170.8076">Login(dto)</text><polygon fill="#181818" points="722,202.0156,732,206.0156,722,210.0156,726,206.0156" style="stroke:#181818;stroke-width:1.0;"/><line style="stroke:#181818;stroke-width:1.0;" x1="449" x2="728" y1="206.0156" y2="206.0156"/><text fill="#000000" font-family="sans-serif" font-size="13" lengthAdjust="spacing" textLength="216" x="456" y="201.1592">GetUserByUserName(dto.UserName)</text><polygon fill="#181818" points="991,232.3672,1001,236.3672,991,240.3672,995,236.3672" style="stroke:#181818;stroke-width:1.0;"/><line style="stroke:#181818;stroke-width:1.0;" x1="744" x2="997" y1="236.3672" y2="236.3672"/><text fill="#000000" font-family="sans-serif" font-size="13" font-style="italic" lengthAdjust="spacing" textLength="232" x="755" y="231.5107">Fetch a specific user from the database</text><polygon fill="#181818" points="755,246.3672,745,250.3672,755,254.3672,751,250.3672" style="stroke:#181818;stroke-width:1.0;"/><line style="stroke:#181818;stroke-width:1.0;stroke-dasharray:2.0,2.0;" x1="749" x2="1007" y1="250.3672" y2="250.3672"/><polygon fill="#181818" points="460,276.7188,450,280.7188,460,284.7188,456,280.7188" style="stroke:#181818;stroke-width:1.0;"/><line style="stroke:#181818;stroke-width:1.0;stroke-dasharray:2.0,2.0;" x1="454" x2="738" y1="280.7188" y2="280.7188"/><text fill="#000000" font-family="sans-serif" font-size="13" lengthAdjust="spacing" textLength="27" x="466" y="275.8623">User</text><path d="M10,295.7188 L71,295.7188 L71,304.0703 L61,314.0703 L10,314.0703 L10,295.7188 " fill="#EEEEEE" style="stroke:#000000;stroke-width:1.5;"/><rect fill="none" height="79.0547" style="stroke:#000000;stroke-width:1.5;" width="489" x="10" y="295.7188"/><text fill="#000000" font-family="sans-serif" font-size="13" font-weight="bold" lengthAdjust="spacing" textLength="16" x="25" y="310.2139">alt</text><text fill="#000000" font-family="sans-serif" font-size="11" font-weight="bold" lengthAdjust="spacing" textLength="72" x="86" y="309.1377">[user == null]</text><polygon fill="#181818" points="203,332.4219,193,336.4219,203,340.4219,199,336.4219" style="stroke:#181818;stroke-width:1.0;"/><line style="stroke:#181818;stroke-width:1.0;" x1="197" x2="438" y1="336.4219" y2="336.4219"/><text fill="#000000" font-family="sans-serif" font-size="13" lengthAdjust="spacing" textLength="184" x="209" y="331.5654">throw new NotFoundException()</text><polygon fill="#181818" points="67,362.7734,57,366.7734,67,370.7734,63,366.7734" style="stroke:#181818;stroke-width:1.0;"/><line style="stroke:#181818;stroke-width:1.0;stroke-dasharray:2.0,2.0;" x1="61" x2="181" y1="366.7734" y2="366.7734"/><text fill="#000000" font-family="sans-serif" font-size="13" lengthAdjust="spacing" textLength="101" x="73" y="361.917">401 Unauthorized</text><line style="stroke:#181818;stroke-width:1.0;" x1="449" x2="491" y1="404.125" y2="404.125"/><line style="stroke:#181818;stroke-width:1.0;" x1="491" x2="491" y1="404.125" y2="417.125"/><line style="stroke:#181818;stroke-width:1.0;" x1="450" x2="491" y1="417.125" y2="417.125"/><polygon fill="#181818" points="460,413.125,450,417.125,460,421.125,456,417.125" style="stroke:#181818;stroke-width:1.0;"/><text fill="#000000" font-family="sans-serif" font-size="13" lengthAdjust="spacing" textLength="271" x="456" y="399.2686">VerifyPassword(dto.Password, user.Password)</text><path d="M10,432.125 L71,432.125 L71,440.4766 L61,450.4766 L10,450.4766 L10,432.125 " fill="#EEEEEE" style="stroke:#000000;stroke-width:1.5;"/><rect fill="none" height="79.0547" style="stroke:#000000;stroke-width:1.5;" width="489" x="10" y="432.125"/><text fill="#000000" font-family="sans-serif" font-size="13" font-weight="bold" lengthAdjust="spacing" textLength="16" x="25" y="446.6201">alt</text><text fill="#000000" font-family="sans-serif" font-size="11" font-weight="bold" lengthAdjust="spacing" textLength="107" x="86" y="445.5439">[!correctPassword]</text><polygon fill="#181818" points="203,468.8281,193,472.8281,203,476.8281,199,472.8281" style="stroke:#181818;stroke-width:1.0;"/><line style="stroke:#181818;stroke-width:1.0;" x1="197" x2="438" y1="472.8281" y2="472.8281"/><text fill="#000000" font-family="sans-serif" font-size="13" lengthAdjust="spacing" textLength="223" x="209" y="467.9717">throw new WrongPasswordException()</text><polygon fill="#181818" points="67,499.1797,57,503.1797,67,507.1797,63,503.1797" style="stroke:#181818;stroke-width:1.0;"/><line style="stroke:#181818;stroke-width:1.0;stroke-dasharray:2.0,2.0;" x1="61" x2="181" y1="503.1797" y2="503.1797"/><text fill="#000000" font-family="sans-serif" font-size="13" lengthAdjust="spacing" textLength="101" x="73" y="498.3232">401 Unauthorized</text><polygon fill="#181818" points="203,536.5313,193,540.5313,203,544.5313,199,540.5313" style="stroke:#181818;stroke-width:1.0;"/><line style="stroke:#181818;stroke-width:1.0;stroke-dasharray:2.0,2.0;" x1="197" x2="443" y1="540.5313" y2="540.5313"/><text fill="#000000" font-family="sans-serif" font-size="13" lengthAdjust="spacing" textLength="27" x="209" y="535.6748">User</text><polygon fill="#181818" points="427,566.8828,437,570.8828,427,574.8828,431,570.8828" style="stroke:#181818;stroke-width:1.0;"/><line style="stroke:#181818;stroke-width:1.0;" x1="192" x2="433" y1="570.8828" y2="570.8828"/><text fill="#000000" font-family="sans-serif" font-size="13" lengthAdjust="spacing" textLength="188" x="199" y="566.0264">GenerateClaimsIdentity(userDto)</text><polygon fill="#181818" points="203,597.2344,193,601.2344,203,605.2344,199,601.2344" style="stroke:#181818;stroke-width:1.0;"/><line style="stroke:#181818;stroke-width:1.0;stroke-dasharray:2.0,2.0;" x1="197" x2="443" y1="601.2344" y2="601.2344"/><text fill="#000000" font-family="sans-serif" font-size="13" lengthAdjust="spacing" textLength="80" x="209" y="596.3779">claimsIdentity</text><polygon fill="#181818" points="427,627.5859,437,631.5859,427,635.5859,431,631.5859" style="stroke:#181818;stroke-width:1.0;"/><line style="stroke:#181818;stroke-width:1.0;" x1="192" x2="433" y1="631.5859" y2="631.5859"/><text fill="#000000" font-family="sans-serif" font-size="13" lengthAdjust="spacing" textLength="195" x="199" y="626.7295">GenerateJwtToken(claimsIdentity)</text><polygon fill="#181818" points="203,657.9375,193,661.9375,203,665.9375,199,661.9375" style="stroke:#181818;stroke-width:1.0;"/><line style="stroke:#181818;stroke-width:1.0;stroke-dasharray:2.0,2.0;" x1="197" x2="443" y1="661.9375" y2="661.9375"/><text fill="#000000" font-family="sans-serif" font-size="13" lengthAdjust="spacing" textLength="32" x="209" y="657.0811">token</text><line style="stroke:#181818;stroke-width:1.0;" x1="192" x2="234" y1="692.2891" y2="692.2891"/><line style="stroke:#181818;stroke-width:1.0;" x1="234" x2="234" y1="692.2891" y2="705.2891"/><line style="stroke:#181818;stroke-width:1.0;" x1="193" x2="234" y1="705.2891" y2="705.2891"/><polygon fill="#181818" points="203,701.2891,193,705.2891,203,709.2891,199,705.2891" style="stroke:#181818;stroke-width:1.0;"/><text fill="#000000" font-family="sans-serif" font-size="13" lengthAdjust="spacing" textLength="135" x="199" y="687.4326">Cookies.Append(token)</text><polygon fill="#181818" points="67,731.6406,57,735.6406,67,739.6406,63,735.6406" style="stroke:#181818;stroke-width:1.0;"/><line style="stroke:#181818;stroke-width:1.0;stroke-dasharray:2.0,2.0;" x1="61" x2="186" y1="735.6406" y2="735.6406"/><text fill="#000000" font-family="sans-serif" font-size="13" lengthAdjust="spacing" textLength="44" x="73" y="730.7842">200 OK</text><rect fill="#EEEEEE" height="3" style="stroke:#EEEEEE;stroke-width:1.0;" width="1039" x="0" y="764.8164"/><line style="stroke:#000000;stroke-width:1.0;" x1="0" x2="1039" y1="764.8164" y2="764.8164"/><line style="stroke:#000000;stroke-width:1.0;" x1="0" x2="1039" y1="767.8164" y2="767.8164"/><rect fill="#EEEEEE" height="24.3516" style="stroke:#000000;stroke-width:2.0;" width="62" x="488.5" y="753.6406"/><text fill="#000000" font-family="sans-serif" font-size="13" font-weight="bold" lengthAdjust="spacing" textLength="44" x="494.5" y="771.1357">Logout</text><polygon fill="#181818" points="170,806.3438,180,810.3438,170,814.3438,174,810.3438" style="stroke:#181818;stroke-width:1.0;"/><line style="stroke:#181818;stroke-width:1.0;" x1="56" x2="176" y1="810.3438" y2="810.3438"/><text fill="#000000" font-family="sans-serif" font-size="13" lengthAdjust="spacing" textLength="107" x="63" y="805.4873">POST /auth/logout</text><polygon fill="#181818" points="432,836.6953,442,840.6953,432,844.6953,436,840.6953" style="stroke:#181818;stroke-width:1.0;"/><line style="stroke:#181818;stroke-width:1.0;" x1="192" x2="438" y1="840.6953" y2="840.6953"/><text fill="#000000" font-family="sans-serif" font-size="13" lengthAdjust="spacing" textLength="80" x="199" y="835.8389">DeleteToken()</text><polygon fill="#181818" points="67,867.0469,57,871.0469,67,875.0469,63,871.0469" style="stroke:#181818;stroke-width:1.0;"/><line style="stroke:#181818;stroke-width:1.0;stroke-dasharray:2.0,2.0;" x1="61" x2="186" y1="871.0469" y2="871.0469"/><text fill="#000000" font-family="sans-serif" font-size="13" lengthAdjust="spacing" textLength="44" x="73" y="866.1904">200 OK</text><!--SRC=[hLJRRjim37tNLt1l3h0ssR0d0ncmfalHhkjbQTTdLMOQeOveo7HIx-idEPNZIzeYtG33aAZ3mtD8GPcqh9NEf66OMZAC9W6Pm_nvBR86u3P7Et5nIscAriCA5r5rf0UUeLrfXG7flbKFymipoZMJBGFCkeX89CjxcIFyB6VNv_ueH8HOw0HXJiJtz2J4U0pdzA0DZCT21DrmyBKZBeQhozaD36N1Ys7g4uHKh5UIiMkZlGrKNdsyAHKbJ8DsUkKjB4AATnB32R8tUbJw_uLSeay_39iEJsK-B3nFi1t3S0XJPBK02Nc6Ii-rgbByi9R02won3hfbhVjMdnuqv8a4-yXj_PPtBxc9hpbaoXibRXQcIDDU8vfZS4ejhS7W6Yw8frIOvFkJmemrcMZGQxvZ24EDuSle4zmQFqAo-Wycmb_HRh6DsDzezRoyadc-9fjKBG-RZnMitWug_HyKEJEAG_HL3riBTqxRGyZvNpvsLDpL-_hElNHPJz2WTUX9AlKoFqtGiEOoye3Zjsxm3WsgHVDkDMThlg57D56RRsyvx4dsKD7CdH0zQimFlsMPQtrKKRqniy-Z4Lp-wDPhF1lFBn4LlETJv3BUzHOTOugCcruEu1_L_mK0]--></g></svg>